<?xml version="1.0" encoding="utf-8"?>
<!-- Generator: Adobe Illustrator 16.0.0, SVG Export Plug-In . SVG Version: 6.00 Build 0)  -->
<!DOCTYPE svg PUBLIC "-//W3C//DTD SVG 1.1//EN" "http://www.w3.org/Graphics/SVG/1.1/DTD/svg11.dtd">
<svg version="1.1" id="Layer_1" xmlns="http://www.w3.org/2000/svg" xmlns:xlink="http://www.w3.org/1999/xlink" x="0px" y="0px"
	 width="46px" height="60.5px" viewBox="28 5.75 46 60.5" enable-background="new 28 5.75 46 60.5" xml:space="preserve">
<g>
	<g>
		<path fill="#CFCFCF" d="M34.243,41.722c-0.031-3.237-0.18-21.21-0.25-21.821c-0.234-2.127-0.43,7.131-0.43,11.104
			c0,3.974,0,11.879,0,11.879L34.243,41.722z"/>
		<ellipse fill="#CFCFCF" cx="33.698" cy="19.774" rx="0.858" ry="0.71"/>
	</g>
	<g>
		<g>
			<path id="SVGID_21_" fill="#CFCFCF" d="M61.719,53.826c-0.018,1.774-0.436,4.171-3.646,5.474
				c-4.498,1.824-13.683,0.256-15.517-3.729c-1.331-2.898-0.9-4.471-0.9-4.471L61.719,53.826z"/>
		</g>
		<g>
			<g>
				<g>
					<g>
						<g>
							<defs>
								<path id="SVGID_1_" d="M61.719,53.826c-0.018,1.774-0.436,4.171-3.646,5.474c-4.498,1.824-13.683,0.256-15.517-3.729
									c-1.331-2.898-0.9-4.471-0.9-4.471L61.719,53.826z"/>
							</defs>
							<clipPath id="SVGID_2_">
								<use xlink:href="#SVGID_1_"  overflow="visible"/>
							</clipPath>
							<path opacity="0.4" clip-path="url(#SVGID_2_)" fill="#4E4E4E" enable-background="new    " d="M60.029,58.112
								c-2.863,2.91-13.904,3.013-16.212,0.581c-2.313-2.433-3.31-7.826-2.227-9.122c1.083-1.297,1.105,4.65,3.932,7.047
								C49.406,59.923,60.029,58.112,60.029,58.112z"/>
						</g>
					</g>
				</g>
			</g>
		</g>
	</g>
	<g>
		<g>
			
				<linearGradient id="SVGID_3_" gradientUnits="userSpaceOnUse" x1="-79.897" y1="758.2979" x2="-42.251" y2="758.2979" gradientTransform="matrix(1 0 0 -1 113.5 796.3984)">
				<stop  offset="0" style="stop-color:#666666"/>
				<stop  offset="0.6688" style="stop-color:#CCCCCC"/>
			</linearGradient>
			<path id="SVGID_23_" fill="url(#SVGID_3_)" d="M70.84,36.8c0-5.775-4.865-11.554-8.209-14.29s-11.855-3.762-18.242-1.577
				c-6.384,2.185-10.336,9.178-10.643,13.739c-0.303,4.561-0.91,14.594,7.603,18.85c8.512,4.258,20.874,3.533,24.93,0
				C73.271,47.442,70.84,36.8,70.84,36.8z"/>
		</g>
		<g>
			<g>
				<g>
					<g>
						<g>
							<defs>
								<path id="SVGID_4_" d="M70.84,36.8c0-5.775-4.865-11.554-8.209-14.29s-11.855-3.762-18.242-1.577
									c-6.384,2.185-10.336,9.178-10.643,13.739c-0.303,4.561-0.91,14.594,7.603,18.85c8.512,4.258,20.874,3.533,24.93,0
									C73.271,47.442,70.84,36.8,70.84,36.8z"/>
							</defs>
							<clipPath id="SVGID_5_">
								<use xlink:href="#SVGID_4_"  overflow="visible"/>
							</clipPath>
							<path opacity="0.2" clip-path="url(#SVGID_5_)" fill="#0C0C0C" enable-background="new    " d="M72.469,32.651
								C61.154,21.689,56.916,20.41,47.371,23.042c-11.572,3.192-14.991,19.445-4.503,27.753
								c10.064,7.972,23.917,3.235,26.757,1.613c2.838-1.623-13.969,11.453-30.576,1.16c-9.737-6.03-8.285-23.354-5.447-27.004
								c2.838-3.647,12.201-11.35,22.949-8.41C69.65,21.734,72.469,32.651,72.469,32.651z"/>
						</g>
					</g>
				</g>
			</g>
		</g>
	</g>
	
		<linearGradient id="SVGID_6_" gradientUnits="userSpaceOnUse" x1="-77.3896" y1="756.6377" x2="-45.2683" y2="756.6377" gradientTransform="matrix(1 0 0 -1 113.5 796.3984)">
		<stop  offset="0" style="stop-color:#006A62"/>
		<stop  offset="1" style="stop-color:#003954"/>
	</linearGradient>
	<path fill="url(#SVGID_6_)" d="M67.801,49.267c-3.191,3.072-15.072,4.976-20.877,1.528c-4.468-2.648-6.183-10.39-4.966-15.863
		c1.218-5.474,9.011-9.212,17.839-7.716c9.445,1.605,10.342,5.164,11.047,9.584C72.258,45.716,67.801,49.267,67.801,49.267z"/>
	<path opacity="0.2" fill="#9EC6BE" enable-background="new    " d="M52.275,36.017c-1.096-2.896-6.367-4.386-7.885-1.344
		c-1.521,3.04,0.015,7.262,3.983,7.297C52.869,42.01,52.275,36.017,52.275,36.017z"/>
	<path opacity="0.3" fill="#9EC6BE" enable-background="new    " d="M57.98,30.724c-0.576-1.182-3.34-1.788-4.135-0.546
		c-0.799,1.238,0.008,2.96,2.09,2.975C58.291,33.168,57.98,30.724,57.98,30.724z"/>
	<g>
		<g>
			<path id="SVGID_27_" fill="#CFCFCF" d="M37.7,34.673c-1.063-4.104-4.863-4.156-5.776-2.736
				c-1.185,1.844-3.022,10.037-0.151,12.465c2.869,2.428,5.301,1.475,5.928-2.735C38.233,38.099,37.7,34.673,37.7,34.673z"/>
		</g>
		<g>
			<g>
				<g>
					<g>
						<g>
							<defs>
								<path id="SVGID_7_" d="M37.7,34.673c-1.063-4.104-4.863-4.156-5.776-2.736c-1.185,1.844-3.022,10.037-0.151,12.465
									c2.869,2.428,5.301,1.475,5.928-2.735C38.233,38.099,37.7,34.673,37.7,34.673z"/>
							</defs>
							<clipPath id="SVGID_8_">
								<use xlink:href="#SVGID_7_"  overflow="visible"/>
							</clipPath>
							
								<linearGradient id="SVGID_9_" gradientUnits="userSpaceOnUse" x1="-82.894" y1="757.5625" x2="-74.8757" y2="757.5625" gradientTransform="matrix(1 0 0 -1 113.5 796.3984)">
								<stop  offset="0.146" style="stop-color:#333333"/>
								<stop  offset="0.9208" style="stop-color:#CCCCCC"/>
							</linearGradient>
							<path opacity="0.4" clip-path="url(#SVGID_8_)" fill="url(#SVGID_9_)" enable-background="new    " d="M32,45.716
								c2.105-0.257,3.167-1.414,3.572-3.44c0.406-2.027,0.685-5.473,0-7.907c-0.545-1.939-3.285-2.691-4.4-2.321
								c-1.115,0.372-1.986,4.785-1.986,6.745C29.188,43.693,32,45.716,32,45.716z"/>
						</g>
					</g>
				</g>
			</g>
		</g>
	</g>
	<g>
		<g>
			<path id="SVGID_30_" fill="#CFCFCF" d="M33.565,39.135c0-1.134-1.605-1.106-1.918-0.727c-0.408,0.49-1.067,2.672-0.082,3.317
				c0.981,0.647,2,0.406,2-0.727C33.565,39.866,33.565,39.135,33.565,39.135z"/>
		</g>
		<g>
			<g>
				<g>
					<g>
						<g>
							<defs>
								<path id="SVGID_10_" d="M33.565,39.135c0-1.134-1.605-1.106-1.918-0.727c-0.408,0.49-1.067,2.672-0.082,3.317
									c0.981,0.647,2,0.406,2-0.727C33.565,39.866,33.565,39.135,33.565,39.135z"/>
							</defs>
							<clipPath id="SVGID_11_">
								<use xlink:href="#SVGID_10_"  overflow="visible"/>
							</clipPath>
							<path opacity="0.4" clip-path="url(#SVGID_11_)" fill="#282828" enable-background="new    " d="M31.534,42.077
								c0.723-0.068,1.182-0.46,1.32-0.999c0.139-0.54,0.008-1.568,0-2.103c-0.011-0.537-0.938-0.849-1.32-0.75
								c-0.38,0.099-0.867,1.404-0.867,1.926C30.667,41.456,31.534,42.077,31.534,42.077z"/>
						</g>
					</g>
				</g>
			</g>
		</g>
	</g>
	<path opacity="0.4" fill="#9EC6BE" enable-background="new    " d="M67.428,32.532c3.289,19.712-15.773,17.828-20.84,13.77
		c-1.579-1.262,1.467,5.164,10.189,4.556C76.225,49.5,67.428,32.532,67.428,32.532z"/>
	<path opacity="0.4" fill="#9EC6BE" enable-background="new    " d="M50.764,36.255c-0.703-1.598-4.084-2.417-5.06-0.74
		c-0.975,1.675,0.012,4,2.556,4.022C51.145,39.559,50.764,36.255,50.764,36.255z"/>
	<path fill="#FAFAFA" d="M71.148,41.97c-0.078-2.564-1.092-8.847-3.348-10.945c-6.387-5.929-16.115-2.766-18.391-2.129
		c-7.833,2.2-8.355,9.727-7.757,12.542c0.662,3.117,0.737,10.293,15.728,11.121c1.551,0.084-4.518,1.062-7.809-0.405
		c-1.195-0.532-7.998-2.487-8.998-10.487c-0.769-6.136,0.819-9.089,3.812-11.444c4.256-3.345,10.028-3.835,12.692-3.758
		c2.67,0.074,5.322,0.314,7.314,1.063c3.102,1.167,4.758,3.329,5.229,4.137C72.057,35.847,71.148,41.97,71.148,41.97z"/>
	<g>
		<g>
			<path id="SVGID_32_" fill="#CFCFCF" d="M33.903,35.686c-0.338-0.706-0.852-0.69-1.041-0.453
				c-0.246,0.305-0.703,1.665-0.109,2.065c0.595,0.403,1.15,0.253,1.15-0.452S33.903,35.686,33.903,35.686z"/>
		</g>
		<g>
			<g>
				<g>
					<g>
						<g>
							<defs>
								<path id="SVGID_12_" d="M33.903,35.686c-0.338-0.706-0.852-0.69-1.041-0.453c-0.246,0.305-0.703,1.665-0.109,2.065
									c0.595,0.403,1.15,0.253,1.15-0.452S33.903,35.686,33.903,35.686z"/>
							</defs>
							<clipPath id="SVGID_13_">
								<use xlink:href="#SVGID_12_"  overflow="visible"/>
							</clipPath>
							<path opacity="0.4" clip-path="url(#SVGID_13_)" fill="#111111" enable-background="new    " d="M32.909,37.518
								c0.438-0.043,0.715-0.287,0.8-0.625c0.084-0.337,0.004-0.974,0-1.309c-0.007-0.334-0.567-0.529-0.8-0.467
								c-0.229,0.064-0.524,0.874-0.524,1.2C32.388,37.13,32.909,37.518,32.909,37.518z"/>
						</g>
					</g>
				</g>
			</g>
		</g>
	</g>
	<g>
		<path fill="#CFCFCF" d="M36.946,35.64c-0.031-3.239-0.347-21.209-0.416-21.82c-0.236-2.129-0.602,7.129-0.602,11.102
			c0,3.975,0,11.878,0,11.878L36.946,35.64z"/>
		<ellipse fill="#CFCFCF" cx="36.737" cy="13.693" rx="0.861" ry="0.711"/>
	</g>
	<path opacity="0.6" fill="#FCFCFC" enable-background="new    " d="M46.59,35.945c0-0.476,0.482-0.857,1.076-0.857
		c0.596,0,1.078,0.384,1.078,0.857c0,0.473-0.482,0.855-1.078,0.855S46.59,36.418,46.59,35.945z"/>
	<path opacity="0.5" fill="#FCFCFC" enable-background="new    " d="M54.797,31.079c0-0.474,0.482-0.856,1.078-0.856
		s1.08,0.384,1.08,0.856c0,0.472-0.484,0.857-1.08,0.857S54.797,31.552,54.797,31.079z"/>
	<path opacity="0.5" fill="#FCFCFC" enable-background="new    " d="M55.43,38.056c0-0.465,0.398-0.844,0.893-0.844
		c0.496,0,0.895,0.378,0.895,0.844c0,0.466-0.398,0.843-0.895,0.843C55.828,38.901,55.43,38.521,55.43,38.056z"/>
</g>
<g id="Layer_2" display="none">
	<g display="inline">
		<g>
			
				<linearGradient id="SVGID_14_" gradientUnits="userSpaceOnUse" x1="335.6064" y1="2569.0625" x2="359.4295" y2="2597.5479" gradientTransform="matrix(0.455 0.8174 0.8258 -0.4597 -2040.6569 1071.7601)">
				<stop  offset="0" style="stop-color:#666666"/>
				<stop  offset="0.6688" style="stop-color:#CCCCCC"/>
			</linearGradient>
			<path fill="url(#SVGID_14_)" d="M247.521,185.917c-4.351,2.173-11.209,0.345-15.326-6.114c-5.117-8.02-0.18-13.351-0.104-16.21
				c0.16-6.089-0.939-9.215,1.895-9.917c5.546-1.369,1.947,10.106,3.351,10.68c2.97,1.211,3.244-5.604,3.701-11.023
				c0.446-5.313,8.142-5.057,7.317-2.557c-0.822,2.503-5.156,10.429-4.086,12.647c1.066,2.22,5.006-10.425,9.758-13.071
				c4.752-2.645,5.348,1.006,4.392,3.146c-0.958,2.145-7.728,8.996-8.821,12.225c-1.095,3.229,0.771,1.379,6.254-3.481
				c5.485-4.863,7.924-5.528,9.303-4.345c2.705,2.319-0.174,4.298-4.061,7.271c-3.891,2.968-6.896,4.817-8.453,8.104
				c-1.556,3.277-0.688,5.742,2.404,4.021c3.09-1.723,6.752-4.935,8.801-3.396c3.706,2.791,0.229,5.645-3.962,6.771
				C255.691,181.796,247.521,185.917,247.521,185.917z"/>
			<g>
				
					<linearGradient id="SVGID_15_" gradientUnits="userSpaceOnUse" x1="-686.8232" y1="3356.0508" x2="-714.0101" y2="3366.0676" gradientTransform="matrix(-0.1787 0.9839 0.9839 0.1787 -3196.6953 264.8353)">
					<stop  offset="0" style="stop-color:#B3B3B3"/>
					<stop  offset="1" style="stop-color:#808080"/>
				</linearGradient>
				<path fill="url(#SVGID_15_)" d="M232.637,173.467c-0.746,0.288-9.496,4.51-11.029,4.16c-1.531-0.348,7.594-0.842,11.291,2.202
					c3.224,2.646,7.043,2.752,5.215,14.373c0,0,4.006-6.453,5.188-10.282C246.329,174.122,232.637,173.467,232.637,173.467z"/>
				<path fill="#5E6060" d="M221.302,183.785c-1.38-3.419-0.592-5.997,1.111-6.701c1.705-0.703,5.685-3.355,11.021,0.568
					c5.338,3.926,6.164,6.603,5.703,11.25c-0.462,4.646-0.414,4.686-1.021,5.298c-0.604,0.61-4.644-0.052-9.046-3.372
					C224.668,187.507,221.302,183.785,221.302,183.785z"/>
			</g>
			<g>
				<g>
					
						<linearGradient id="SVGID_16_" gradientUnits="userSpaceOnUse" x1="-763.0732" y1="-232.7715" x2="-713.7451" y2="-232.7715" gradientTransform="matrix(0.8568 -0.5157 -0.5157 -0.8568 679.2498 -224.5706)">
						<stop  offset="0" style="stop-color:#4D4D4D"/>
						<stop  offset="0.966" style="stop-color:#CCCCCC"/>
					</linearGradient>
					<path id="SVGID_58_" fill="url(#SVGID_16_)" d="M158.077,325.455c-2.79,8.895-9.22,19.47-10.669,20.95
						c-12.021,12.286-1.188,22.325-1.188,22.325s7.002,6.315,13.68,10.191c3.935,2.282,19.238,9.338,29.67-3.087
						c9.878-11.763-13.002-18.04-14.342-20.263c-3.563-5.913,4.623-13.42,8.471-18.324
						C186.352,333.866,158.077,325.455,158.077,325.455z"/>
				</g>
				<g>
					<g>
						<g>
							<g>
								<g>
									<defs>
										<path id="SVGID_17_" d="M158.077,325.455c-2.79,8.895-9.22,19.47-10.669,20.95c-12.021,12.286-1.188,22.325-1.188,22.325
											s7.002,6.315,13.68,10.191c3.935,2.282,19.238,9.338,29.67-3.087c9.878-11.763-13.002-18.04-14.342-20.263
											c-3.563-5.913,4.623-13.42,8.471-18.324C186.352,333.866,158.077,325.455,158.077,325.455z"/>
									</defs>
									<clipPath id="SVGID_18_">
										<use xlink:href="#SVGID_17_"  overflow="visible"/>
									</clipPath>
									<path clip-path="url(#SVGID_18_)" fill="#CBD3D2" d="M146.326,343.661c-3.953,6.229-4.489,13.479,2.738,19.675
										c7.226,6.188,15.52,14.153,22.468,15.225c6.946,1.068,18.96-0.195,19.631-5.166c0.67-4.957,2.748,5.7-5.631,10.396
										c-8.382,4.693-14.955,6.896-23.993,2.188s-26.133-15.082-26.502-21.51C134.67,358.032,146.326,343.661,146.326,343.661z"/>
								</g>
							</g>
						</g>
					</g>
				</g>
			</g>
			<g>
				<g>
					
						<linearGradient id="SVGID_19_" gradientUnits="userSpaceOnUse" x1="-286.4351" y1="212.9092" x2="-236.9375" y2="212.9092" gradientTransform="matrix(0.985 -0.1725 -0.1725 -0.985 378.7954 502.9489)">
						<stop  offset="0" style="stop-color:#4D4D4D"/>
						<stop  offset="0.966" style="stop-color:#CCCCCC"/>
					</linearGradient>
					<path id="SVGID_61_" fill="url(#SVGID_19_)" d="M88.873,306.373c-7.516,6.544-17.406,15.284-19.292,16.145
						c-15.64,7.137-9.147,20.397-9.147,20.397s4.258,8.419,9.09,14.438c2.849,3.541,10.646,18.521,28.791,7.813
						c13.228-7.813-5.436-20.247-5.881-22.801c-1.188-6.805,9.355-10.49,14.713-13.684
						C110.84,326.479,88.873,306.373,88.873,306.373z"/>
				</g>
				<g>
					<g>
						<g>
							<g>
								<g>
									<defs>
										<path id="SVGID_20_" d="M88.873,306.373c-7.516,6.544-17.406,15.284-19.292,16.145
											c-15.64,7.137-9.147,20.397-9.147,20.397s4.258,8.419,9.09,14.438c2.849,3.541,10.646,18.521,28.791,7.813
											c13.228-7.813-5.436-20.247-5.881-22.801c-1.188-6.805,9.355-10.49,14.713-13.684
											C110.84,326.479,88.873,306.373,88.873,306.373z"/>
									</defs>
									<clipPath id="SVGID_22_">
										<use xlink:href="#SVGID_20_"  overflow="visible"/>
									</clipPath>
									<path clip-path="url(#SVGID_22_)" fill="#CBD3D2" d="M69.563,319.568c-5.934,4.387-9.043,10.959-4.533,19.337
										c4.517,8.379,9.385,18.793,15.479,22.293c6.1,3.502,17.766,6.646,20.178,2.256c2.408-4.39,0.51,6.307-8.996,7.665
										c-9.512,1.359-16.438,1.049-23.17-6.604c-6.735-7.649-18.949-23.479-16.979-29.609
										C53.512,328.773,69.563,319.568,69.563,319.568z"/>
								</g>
							</g>
						</g>
					</g>
				</g>
			</g>
			<path fill="#CFCFCF" d="M164.656,323.021c-3.709,0.898-11.475,2.473-8.025,9.096c2.805,5.382,10.262,8.83,19.182,9.979
				c5.799,0.746,10.764-5.046,7.789-10.955C180.789,325.549,164.656,323.021,164.656,323.021z"/>
			<g>
				<g>
					<path id="SVGID_64_" fill="#CFCFCF" d="M164.328,259.874c1.609,9.787,12.736,23.063,10.431,32.754
						c-2.305,9.69-9.518,26.599-12.812,31.701c-5.883,9.116,6.195,12.354,8.927,13.095c2.733,0.741,11.821,3.233,13.716-10.662
						c1.32-9.699,5.166-21.451,6.442-30.394c1.633-11.399-7.476-36.041-14.902-39.894
						C162.415,249.355,164.328,259.874,164.328,259.874z"/>
				</g>
				<g>
					<g>
						<g>
							<g>
								<g>
									<defs>
										<path id="SVGID_24_" d="M164.328,259.874c1.609,9.787,12.736,23.063,10.431,32.754
											c-2.305,9.69-9.518,26.599-12.812,31.701c-5.883,9.116,6.195,12.354,8.927,13.095c2.733,0.741,11.821,3.233,13.716-10.662
											c1.32-9.699,5.166-21.451,6.442-30.394c1.633-11.399-7.476-36.041-14.902-39.894
											C162.415,249.355,164.328,259.874,164.328,259.874z"/>
									</defs>
									<clipPath id="SVGID_25_">
										<use xlink:href="#SVGID_24_"  overflow="visible"/>
									</clipPath>
									
										<linearGradient id="SVGID_26_" gradientUnits="userSpaceOnUse" x1="-1217.3735" y1="-397.5239" x2="-1190.1071" y2="-417.124" gradientTransform="matrix(0.6753 -0.7375 -0.7375 -0.6753 694.4702 -871.5659)">
										<stop  offset="0" style="stop-color:#4D4D4D"/>
										<stop  offset="0.6688" style="stop-color:#CCCCCC"/>
									</linearGradient>
									<path clip-path="url(#SVGID_25_)" fill="url(#SVGID_26_)" d="M181.816,257.117c-10.676-0.211-11.334,0.482-7.303,10.138
										c4.025,9.647,9.271,19.833,7.805,28.646c-1.471,8.813-10.455,22.162-11.647,26.067
										c-3.889,12.747,12.209,12.127,17.134,7.525c4.928-4.604-6.396,12.125-17.283,10.325
										c-10.888-1.805-16.918-10.553-13.828-15.629c3.096-5.082,6.593-19.662,10.701-31.271
										c4.112-11.604-4.558-26.009-8.08-31.369c-3.521-5.354,0.069-16.084,8.101-12.8c8.024,3.281,15.671,9.444,15.671,9.444"/>
								</g>
							</g>
						</g>
					</g>
				</g>
			</g>
			<g>
				<g>
					<path id="SVGID_67_" fill="#4C4C4C" d="M106.191,189.178c-4.047,8.844-11.463,29.764-7.963,45.881
						c0.974,4.483,13.846,11.58,32.232,7.332c18.393-4.25,26.693-47.097,25.997-54.553c-0.692-7.458-34.333-14.661-39.729-11.967
						C108.941,179.748,106.191,189.178,106.191,189.178z"/>
				</g>
				<g>
					<g>
						<g>
							<g>
								<g>
									<defs>
										<path id="SVGID_28_" d="M106.191,189.178c-4.047,8.844-11.463,29.764-7.963,45.881c0.974,4.483,13.846,11.58,32.232,7.332
											c18.393-4.25,26.693-47.097,25.997-54.553c-0.692-7.458-34.333-14.661-39.729-11.967
											C108.941,179.748,106.191,189.178,106.191,189.178z"/>
									</defs>
									<clipPath id="SVGID_29_">
										<use xlink:href="#SVGID_28_"  overflow="visible"/>
									</clipPath>
									
										<linearGradient id="SVGID_31_" gradientUnits="userSpaceOnUse" x1="-285.3428" y1="277.1855" x2="-225.9512" y2="277.1855" gradientTransform="matrix(0.9772 -0.2123 -0.2123 -0.9772 426.8928 424.3083)">
										<stop  offset="0" style="stop-color:#4D4D4D"/>
										<stop  offset="0.6688" style="stop-color:#CCCCCC"/>
									</linearGradient>
									<path clip-path="url(#SVGID_29_)" fill="url(#SVGID_31_)" d="M141.971,177.125c0.752,11.6-0.121,0.816-15.543,5.749
										c-6.308,2.019-12.406,26.354-13.91,36.63c-2.342,15.982-2.596,20.633,10.971,23.872
										c8.773,2.091-31.692,7.381-29.979-12.281c1.717-19.659,10.569-55.464,20.4-60.372
										C123.738,165.816,141.971,177.125,141.971,177.125z"/>
								</g>
							</g>
						</g>
					</g>
				</g>
			</g>
			<g>
				<g>
					<path id="SVGID_70_" fill="#CFCFCF" d="M184.406,185.504c6.209,0.107,16.342,5.742,26.978,2.53
						c12.714-3.843,18.894-10.667,18.894-10.667s3.356,0.583,6.514,4.013c2.055,2.233-6.254,14.497-15.118,17.665
						c-8.854,3.167-31.805,4.038-35.979,0.997C181.518,197.002,184.406,185.504,184.406,185.504z"/>
				</g>
				<g>
					<g>
						<g>
							<g>
								<g>
									<defs>
										<path id="SVGID_33_" d="M184.406,185.504c6.209,0.107,16.342,5.742,26.978,2.53c12.714-3.843,18.894-10.667,18.894-10.667
											s3.356,0.583,6.514,4.013c2.055,2.233-6.254,14.497-15.118,17.665c-8.854,3.167-31.805,4.038-35.979,0.997
											C181.518,197.002,184.406,185.504,184.406,185.504z"/>
									</defs>
									<clipPath id="SVGID_34_">
										<use xlink:href="#SVGID_33_"  overflow="visible"/>
									</clipPath>
									<path opacity="0.4" clip-path="url(#SVGID_34_)" fill="#9B9B9B" enable-background="new    " d="M195.975,183.374
										c-1.673,5.995-0.188,11.422,4.188,12.453c8.269,1.946,18.508,0.377,25.479-4.077c6.976-4.453,20.781-14.166,21.463-19.793
										c0.674-5.629-2.765,16.676-11.741,22.322c-8.98,5.646-17.144,10.271-30.409,11.394c-13.268,1.121-26.191-8.8-26.928-13.666
										C177.29,187.143,195.975,183.374,195.975,183.374z"/>
								</g>
							</g>
						</g>
					</g>
				</g>
			</g>
			<g>
				<g>
					
						<linearGradient id="SVGID_35_" gradientUnits="userSpaceOnUse" x1="-212.4478" y1="315.9512" x2="-127.8408" y2="315.9512" gradientTransform="matrix(0.985 -0.1725 -0.1725 -0.985 378.7954 502.9489)">
						<stop  offset="0" style="stop-color:#4D4D4D"/>
						<stop  offset="0.6688" style="stop-color:#CCCCCC"/>
					</linearGradient>
					<path id="SVGID_72_" fill="url(#SVGID_35_)" d="M139.545,172.087c2.505,5.731-12.59,36.294-20.613,54.556
						c-8.179,18.607,9.321,48.32,40.082,45.633c34.237-2.985,46.44-18.375,39.582-57.197c-5.9-33.416-12.396-41.586-15.285-44.555
						C180.422,167.559,139.545,172.087,139.545,172.087z"/>
				</g>
				<g>
					<g>
						<g>
							<g>
								<g>
									<defs>
										<path id="SVGID_36_" d="M139.545,172.087c2.505,5.731-12.59,36.294-20.613,54.556
											c-8.179,18.607,9.321,48.32,40.082,45.633c34.237-2.985,46.44-18.375,39.582-57.197
											c-5.9-33.416-12.396-41.586-15.285-44.555C180.422,167.559,139.545,172.087,139.545,172.087z"/>
									</defs>
									<clipPath id="SVGID_37_">
										<use xlink:href="#SVGID_36_"  overflow="visible"/>
									</clipPath>
									
										<linearGradient id="SVGID_38_" gradientUnits="userSpaceOnUse" x1="-206.4092" y1="326.498" x2="-171.6949" y2="313.4511" gradientTransform="matrix(0.985 -0.1725 -0.1725 -0.985 378.7954 502.9489)">
										<stop  offset="0" style="stop-color:#1A1A1A"/>
										<stop  offset="0.6688" style="stop-color:#666666"/>
									</linearGradient>
									<path opacity="0.4" clip-path="url(#SVGID_37_)" fill="url(#SVGID_38_)" enable-background="new    " d="M205.152,178.732
										c-20.744-3.16-51.42-2.11-61.084,12.479c-9.539,14.396-25.324,46.031-3.979,65.262
										c22.958,20.674,61.153-4.201,64.169-14.766c3.021-10.563-4.923,33.09-46.04,35.537
										c-28.287,1.686-52.604-13.631-47.133-47.596c5.475-33.965,22.239-56.854,36.295-59.168
										C161.438,168.169,205.152,178.732,205.152,178.732z"/>
								</g>
							</g>
						</g>
					</g>
				</g>
			</g>
			<g>
				<path fill="#CFCFCF" d="M108.609,144.495c-1.748-9.427-11.354-61.744-11.865-63.492c-1.773-6.084,2.385,21.004,4.413,32.588
					c2.028,11.585,6.063,34.634,6.063,34.634L108.609,144.495z"/>
				
					<ellipse transform="matrix(-0.1729 -0.9849 0.9849 -0.1729 32.8252 189.1017)" fill="#CFCFCF" cx="95.811" cy="80.769" rx="2.101" ry="2.549"/>
			</g>
			<g>
				<g>
					<path id="SVGID_76_" fill="#CFCFCF" d="M194.896,165.761c0.854,5.179,0.854,12.38-7.848,17.819
						c-12.186,7.613-39.76,7.729-47.137-2.951c-5.366-7.771-4.915-12.574-4.915-12.574L194.896,165.761z"/>
				</g>
				<g>
					<g>
						<g>
							<g>
								<g>
									<defs>
										<path id="SVGID_39_" d="M194.896,165.761c0.854,5.179,0.854,12.38-7.848,17.819c-12.186,7.613-39.76,7.729-47.137-2.951
											c-5.366-7.771-4.915-12.574-4.915-12.574L194.896,165.761z"/>
									</defs>
									<clipPath id="SVGID_40_">
										<use xlink:href="#SVGID_39_"  overflow="visible"/>
									</clipPath>
									<path opacity="0.4" clip-path="url(#SVGID_40_)" fill="#4E4E4E" enable-background="new    " d="M192.156,179.115
										c-6.864,9.951-39.006,15.88-46.984,9.969c-7.98-5.911-13.637-21.12-11.145-25.455c2.494-4.336,5.604,12.995,15.061,18.543
										C162.111,189.814,192.156,179.115,192.156,179.115z"/>
								</g>
							</g>
						</g>
					</g>
				</g>
			</g>
			<g>
				<g>
					
						<linearGradient id="SVGID_41_" gradientUnits="userSpaceOnUse" x1="-206.1968" y1="410.4082" x2="-94.7686" y2="410.4082" gradientTransform="matrix(0.985 -0.1725 -0.1725 -0.985 378.7954 502.9489)">
						<stop  offset="0" style="stop-color:#666666"/>
						<stop  offset="0.6688" style="stop-color:#CCCCCC"/>
					</linearGradient>
					<path id="SVGID_78_" fill="url(#SVGID_41_)" d="M212.797,111.465c-2.949-16.84-20.081-31.199-31.229-37.469
						c-11.146-6.271-36.488-4.912-53.988,4.715s-25.452,32.034-24.012,45.484c1.438,13.453,4.791,43.014,31.783,51.078
						c26.988,8.063,62.648-0.362,72.686-12.729C225.318,141.25,212.797,111.465,212.797,111.465z"/>
				</g>
				<g>
					<g>
						<g>
							<g>
								<g>
									<defs>
										<path id="SVGID_42_" d="M212.797,111.465c-2.949-16.84-20.081-31.199-31.229-37.469
											c-11.146-6.271-36.488-4.912-53.988,4.715s-25.452,32.034-24.012,45.484c1.438,13.453,4.791,43.014,31.783,51.078
											c26.988,8.063,62.648-0.362,72.686-12.729C225.318,141.25,212.797,111.465,212.797,111.465z"/>
									</defs>
									<clipPath id="SVGID_43_">
										<use xlink:href="#SVGID_42_"  overflow="visible"/>
									</clipPath>
									<path opacity="0.2" clip-path="url(#SVGID_43_)" fill="#0C0C0C" enable-background="new    " d="M215.427,98.541
										c-38.581-26.184-51.593-27.753-78.075-15.204c-32.104,15.213-33.781,64.343,1.039,83.209
										c33.41,18.104,71.383-2.782,78.83-8.957c7.445-6.176-34.873,40.517-88.551,18.991
										c-31.462-12.616-36.072-63.864-29.66-75.949c6.409-12.085,29.77-39.32,62.606-36.237
										C201.634,68.15,215.427,98.541,215.427,98.541z"/>
								</g>
							</g>
						</g>
					</g>
				</g>
			</g>
			
				<linearGradient id="SVGID_44_" gradientUnits="userSpaceOnUse" x1="-198.7788" y1="405.498" x2="-103.7051" y2="405.498" gradientTransform="matrix(0.985 -0.1725 -0.1725 -0.985 378.7954 502.9489)">
				<stop  offset="0" style="stop-color:#006A62"/>
				<stop  offset="1" style="stop-color:#003954"/>
			</linearGradient>
			<path fill="url(#SVGID_44_)" d="M210.297,149.361c-7.738,10.582-41.396,22.197-60.086,15.115
				c-14.381-5.445-23.329-27.146-22.578-43.722c0.752-16.573,21.571-31.459,48.066-31.598c28.371-0.146,32.787,9.772,37.098,22.305
				C221.486,136.73,210.297,149.361,210.297,149.361z"/>
			<path opacity="0.2" fill="#9EC6BE" enable-background="new    " d="M158.268,118.659c-4.67-7.89-20.795-9.536-23.675,0.104
				s3.75,21.162,15.339,19.237C163.063,135.827,158.268,118.659,158.268,118.659z"/>
			<path opacity="0.3" fill="#9EC6BE" enable-background="new    " d="M172.202,100.316c-2.28-3.151-10.647-3.508-12.339,0.515
				c-1.692,4.022,1.535,8.63,7.611,7.606C174.357,107.283,172.202,100.316,172.202,100.316z"/>
			<g>
				<g>
					<path id="SVGID_82_" fill="#CFCFCF" d="M115.092,122.178c-5.197-11.424-16.304-9.632-18.236-5.029
						c-2.517,5.983-3.688,30.808,5.918,36.42c9.608,5.617,16.205,1.597,15.893-11.002
						C118.395,131.898,115.092,122.178,115.092,122.178z"/>
				</g>
				<g>
					<g>
						<g>
							<g>
								<g>
									<defs>
										<path id="SVGID_45_" d="M115.092,122.178c-5.197-11.424-16.304-9.632-18.236-5.029c-2.517,5.983-3.688,30.808,5.918,36.42
											c9.608,5.617,16.205,1.597,15.893-11.002C118.395,131.898,115.092,122.178,115.092,122.178z"/>
									</defs>
									<clipPath id="SVGID_46_">
										<use xlink:href="#SVGID_45_"  overflow="visible"/>
									</clipPath>
									
										<linearGradient id="SVGID_47_" gradientUnits="userSpaceOnUse" x1="-215.0688" y1="408.2344" x2="-191.3379" y2="408.2344" gradientTransform="matrix(0.985 -0.1725 -0.1725 -0.985 378.7954 502.9489)">
										<stop  offset="0.146" style="stop-color:#333333"/>
										<stop  offset="0.9208" style="stop-color:#CCCCCC"/>
									</linearGradient>
									<path opacity="0.4" clip-path="url(#SVGID_46_)" fill="url(#SVGID_47_)" enable-background="new    " d="M104.109,157.282
										c6.013-1.827,8.511-5.739,8.656-11.856c0.146-6.115-0.801-16.307-4.035-23.048c-2.58-5.377-10.951-6.17-14.015-4.521
										c-3.062,1.649-3.345,14.963-2.344,20.679C94.877,152.82,104.109,157.282,104.109,157.282z"/>
								</g>
							</g>
						</g>
					</g>
				</g>
			</g>
			<g>
				<g>
					<path id="SVGID_85_" fill="#CFCFCF" d="M105.309,137.302c-0.578-3.303-5.244-2.405-5.961-1.145
						c-0.937,1.639-1.748,8.336,1.45,9.717c3.196,1.383,6.04,0.159,5.461-3.146C105.682,139.425,105.309,137.302,105.309,137.302z"
						/>
				</g>
				<g>
					<g>
						<g>
							<g>
								<g>
									<defs>
										<path id="SVGID_48_" d="M105.309,137.302c-0.578-3.303-5.244-2.405-5.961-1.145c-0.937,1.639-1.748,8.336,1.45,9.717
											c3.196,1.383,6.04,0.159,5.461-3.146C105.682,139.425,105.309,137.302,105.309,137.302z"/>
									</defs>
									<clipPath id="SVGID_49_">
										<use xlink:href="#SVGID_48_"  overflow="visible"/>
									</clipPath>
									<path opacity="0.4" clip-path="url(#SVGID_49_)" fill="#282828" enable-background="new    " d="M100.895,146.919
										c2.072-0.569,3.209-1.946,3.338-3.59c0.129-1.646-0.771-4.577-1.07-6.136c-0.303-1.563-3.166-1.993-4.229-1.51
										c-1.063,0.48-1.813,4.539-1.55,6.061C98.046,145.547,100.895,146.919,100.895,146.919z"/>
								</g>
							</g>
						</g>
					</g>
				</g>
			</g>
			<path opacity="0.4" fill="#9EC6BE" enable-background="new    " d="M200.669,100.766c19.644,55.787-36.89,60.025-53.729,50.781
				c-5.237-2.877,6.916,14.299,32.033,8.074C234.971,145.744,200.669,100.766,200.669,100.766z"/>
			<path opacity="0.4" fill="#9EC6BE" enable-background="new    " d="M153.984,120.127c-2.864-4.3-13.146-4.963-15.133,0.421
				c-1.986,5.386,2.068,11.667,9.51,10.425C156.784,129.563,153.984,120.127,153.984,120.127z"/>
			<path fill="#FAFAFA" d="M216.334,126.376c-1.54-7.433-7.693-25.235-15.35-30.2c-21.646-14.025-48.396,0.16-54.699,3.184
				c-21.717,10.412-19.396,32.625-16.217,40.524c3.521,8.747,7.402,29.632,51.529,24.397c4.571-0.543-12.627,5.397-22.972,2.804
				c-3.761-0.944-24.583-3.174-31.584-25.985c-5.369-17.5-2.255-26.918,5.271-35.313c10.701-11.921,27.274-16.296,35.094-17.436
				c7.814-1.145,15.676-1.806,21.865-0.636c9.633,1.815,15.572,7.279,17.354,9.396C215.857,108.068,216.334,126.376,216.334,126.376
				z"/>
			<g>
				<g>
					<path id="SVGID_87_" fill="#CFCFCF" d="M104.533,127.074c-1.346-1.885-2.833-1.574-3.266-0.793
						c-0.563,1.017-1.201,5.209,0.733,6.078s3.479,0.146,3.119-1.908C104.766,128.396,104.533,127.074,104.533,127.074z"/>
				</g>
				<g>
					<g>
						<g>
							<g>
								<g>
									<defs>
										<path id="SVGID_50_" d="M104.533,127.074c-1.346-1.885-2.833-1.574-3.266-0.793c-0.563,1.017-1.201,5.209,0.733,6.078
											s3.479,0.146,3.119-1.908C104.766,128.396,104.533,127.074,104.533,127.074z"/>
									</defs>
									<clipPath id="SVGID_51_">
										<use xlink:href="#SVGID_50_"  overflow="visible"/>
									</clipPath>
									<path opacity="0.4" clip-path="url(#SVGID_51_)" fill="#111111" enable-background="new    " d="M102.581,132.919
										c1.25-0.349,1.935-1.2,2.007-2.224c0.073-1.022-0.482-2.848-0.669-3.818c-0.187-0.97-1.921-1.25-2.563-0.953
										c-0.642,0.299-1.082,2.815-0.916,3.766C100.854,132.055,102.581,132.919,102.581,132.919z"/>
								</g>
							</g>
						</g>
					</g>
				</g>
			</g>
			<g>
				<path fill="#CFCFCF" d="M113.385,125.387c-1.746-9.427-11.843-61.658-12.354-63.405c-1.773-6.084,1.891,21.092,3.919,32.676
					c2.026,11.584,6.063,34.629,6.063,34.629L113.385,125.387z"/>
				
					<ellipse transform="matrix(-0.1727 -0.985 0.985 -0.1727 58.5465 172.1913)" fill="#CFCFCF" cx="101.589" cy="61.508" rx="2.101" ry="2.551"/>
			</g>
			<path opacity="0.3" fill="#FFFFFF" enable-background="new    " d="M146.627,225.88c2.244-14.604,3.816-16.522,14.479-30.448
				c3.955-5.166,29.653-9.813,34.293,16.687c1.113,6.354,2.851,13.135,1.729,20.438c-2.243,14.604-13.137,18.32-26.086,19.604
				C156.467,253.604,144.385,240.484,146.627,225.88z"/>
			<g>
				<g>
					<g>
						<path id="SVGID_89_" fill="#EDEDED" d="M149.432,206.727c-4.644,6.519-3.771,22.414,1.146,24.295
							c4.922,1.881,36.258,1.617,39.859-0.059c7.736-3.594,10.346-19.527,1.854-24.031
							C178.5,199.619,149.432,206.727,149.432,206.727z"/>
					</g>
					<g>
						<g>
							<g>
								<g>
									<g>
										<defs>
											<path id="SVGID_52_" d="M149.432,206.727c-4.644,6.519-3.771,22.414,1.146,24.295c4.922,1.881,36.258,1.617,39.859-0.059
												c7.736-3.594,10.346-19.527,1.854-24.031C178.5,199.619,149.432,206.727,149.432,206.727z"/>
										</defs>
										<clipPath id="SVGID_53_">
											<use xlink:href="#SVGID_52_"  overflow="visible"/>
										</clipPath>
										<path opacity="0.7" clip-path="url(#SVGID_53_)" fill="#626262" enable-background="new    " d="M194.003,206.635
											c-20.397-2.996-37.627-0.561-41.349,2.745c-2.204,1.96-1.439,15.462,0.188,17.338c2.163,2.493,10.249,1.355,18.336,1.898
											c12.045,0.809,23.939-0.136,29.039-1.837c5.887-1.965-17.042,11.483-46.268,10.791
											c-15.549-0.37-11.396-23.459-8.45-29.661c2.942-6.204,15.106-7.618,23.631-7.099
											C177.652,201.331,194.003,206.635,194.003,206.635z"/>
									</g>
								</g>
							</g>
						</g>
					</g>
				</g>
				<g>
					<g>
						<path id="SVGID_91_" fill="#A0A3A2" d="M154.936,215.532c1.297-3.078,4.67-3.063,5.744-2.123
							c1.396,1.222,3.813,6.864,0.776,8.75s-6.174,1.655-6.667-1.552C154.016,215.575,154.936,215.532,154.936,215.532z"/>
					</g>
					<g>
						<g>
							<g>
								<g>
									<g>
										<defs>
											<path id="SVGID_54_" d="M154.936,215.532c1.297-3.078,4.67-3.063,5.744-2.123c1.396,1.222,3.813,6.864,0.776,8.75
												s-6.174,1.655-6.667-1.552C154.016,215.575,154.936,215.532,154.936,215.532z"/>
										</defs>
										<clipPath id="SVGID_55_">
											<use xlink:href="#SVGID_54_"  overflow="visible"/>
										</clipPath>
										<path opacity="0.4" clip-path="url(#SVGID_55_)" fill="#F5F5F5" enable-background="new    " d="M161.947,223.066
											c-2.33-0.049-3.877-1-4.422-2.4c-0.547-1.4-0.321-4.137-0.396-5.553c-0.07-1.42,2.854-2.41,4.098-2.219
											c1.24,0.189,3.047,3.551,3.146,4.926C164.615,221.264,161.947,223.066,161.947,223.066z"/>
									</g>
								</g>
							</g>
						</g>
					</g>
				</g>
				<g>
					<g>
						<path id="SVGID_93_" fill="#A0A3A2" d="M176.305,215.061c1.295-3.076,4.672-3.063,5.742-2.123
							c1.398,1.225,3.813,6.864,0.778,8.748c-3.035,1.892-6.173,1.656-6.671-1.553C175.381,215.104,176.305,215.061,176.305,215.061
							z"/>
					</g>
					<g>
						<g>
							<g>
								<g>
									<g>
										<defs>
											<path id="SVGID_56_" d="M176.305,215.061c1.295-3.076,4.672-3.063,5.742-2.123c1.398,1.225,3.813,6.864,0.778,8.748
												c-3.035,1.892-6.173,1.656-6.671-1.553C175.381,215.104,176.305,215.061,176.305,215.061z"/>
										</defs>
										<clipPath id="SVGID_57_">
											<use xlink:href="#SVGID_56_"  overflow="visible"/>
										</clipPath>
										<path opacity="0.4" clip-path="url(#SVGID_57_)" fill="#F5F5F5" enable-background="new    " d="M183.314,222.594
											c-2.33-0.048-3.875-1.001-4.422-2.4c-0.547-1.396-0.318-4.135-0.396-5.553c-0.066-1.416,2.854-2.408,4.102-2.216
											c1.239,0.192,3.045,3.552,3.146,4.929C185.984,220.792,183.314,222.594,183.314,222.594z"/>
									</g>
								</g>
							</g>
						</g>
					</g>
				</g>
				<g>
					<g>
						<path id="SVGID_95_" fill="#A0A3A2" d="M186.387,215.746c1.297-3.075,4.67-3.061,5.743-2.122
							c1.396,1.224,3.812,6.865,0.772,8.75c-3.032,1.884-6.172,1.653-6.666-1.554C185.463,215.792,186.387,215.746,186.387,215.746z
							"/>
					</g>
					<g>
						<g>
							<g>
								<g>
									<g>
										<defs>
											<path id="SVGID_59_" d="M186.387,215.746c1.297-3.075,4.67-3.061,5.743-2.122c1.396,1.224,3.812,6.865,0.772,8.75
												c-3.032,1.884-6.172,1.653-6.666-1.554C185.463,215.792,186.387,215.746,186.387,215.746z"/>
										</defs>
										<clipPath id="SVGID_60_">
											<use xlink:href="#SVGID_59_"  overflow="visible"/>
										</clipPath>
										<path opacity="0.4" clip-path="url(#SVGID_60_)" fill="#F5F5F5" enable-background="new    " d="M193.396,223.282
											c-2.33-0.05-3.877-1-4.424-2.401c-0.543-1.398-0.318-4.135-0.396-5.554c-0.073-1.418,2.854-2.408,4.095-2.22
											c1.242,0.188,3.055,3.552,3.146,4.93C196.064,221.48,193.396,223.282,193.396,223.282z"/>
									</g>
								</g>
							</g>
						</g>
					</g>
				</g>
				<g>
					<g>
						<path id="SVGID_97_" fill="#A0A3A2" d="M165.621,215.295c1.295-3.076,4.67-3.063,5.744-2.122
							c1.396,1.224,3.811,6.864,0.773,8.749c-3.035,1.887-6.175,1.655-6.668-1.552C164.695,215.34,165.621,215.295,165.621,215.295z
							"/>
					</g>
					<g>
						<g>
							<g>
								<g>
									<g>
										<defs>
											<path id="SVGID_62_" d="M165.621,215.295c1.295-3.076,4.67-3.063,5.744-2.122c1.396,1.224,3.811,6.864,0.773,8.749
												c-3.035,1.887-6.175,1.655-6.668-1.552C164.695,215.34,165.621,215.295,165.621,215.295z"/>
										</defs>
										<clipPath id="SVGID_63_">
											<use xlink:href="#SVGID_62_"  overflow="visible"/>
										</clipPath>
										<path opacity="0.4" clip-path="url(#SVGID_63_)" fill="#F5F5F5" enable-background="new    " d="M172.633,222.832
											c-2.331-0.053-3.875-1.002-4.423-2.4c-0.547-1.396-0.319-4.138-0.394-5.557c-0.071-1.418,2.849-2.409,4.094-2.217
											c1.244,0.191,3.048,3.553,3.146,4.929C175.302,221.027,172.633,222.832,172.633,222.832z"/>
									</g>
								</g>
							</g>
						</g>
					</g>
				</g>
			</g>
			<g>
				<g>
					<path id="SVGID_99_" fill="#CFCFCF" d="M136.834,187.723c-13.836,2.424-30.938,4.941-47.745-1.841
						c-15.141-6.108-15.271-2.481-15.271-2.481s-4.133,2.959,0.002,7.16c4.134,4.198,4.438,7.898,17.703,12.47
						c13.264,4.563,33.519,7.646,42.619,3.966C152.838,199.43,136.834,187.723,136.834,187.723z"/>
				</g>
				<g>
					<g>
						<g>
							<g>
								<g>
									<defs>
										<path id="SVGID_65_" d="M136.834,187.723c-13.836,2.424-30.938,4.941-47.745-1.841
											c-15.141-6.108-15.271-2.481-15.271-2.481s-4.133,2.959,0.002,7.16c4.134,4.198,4.438,7.898,17.703,12.47
											c13.264,4.563,33.519,7.646,42.619,3.966C152.838,199.43,136.834,187.723,136.834,187.723z"/>
									</defs>
									<clipPath id="SVGID_66_">
										<use xlink:href="#SVGID_65_"  overflow="visible"/>
									</clipPath>
									<path opacity="0.5" clip-path="url(#SVGID_66_)" fill="#9B9B9B" enable-background="new    " d="M82.701,175.003
										c-4.813,11.312,6.436,20.585,18.677,24.563c12.244,3.975,28.302,6.185,35.687,0.811c2.828-2.061-0.521-13.961-6.192-16.508
										c-5.681-2.549,17.313,3.52,15.983,13.811c-1.321,10.295-18.436,18.611-37.545,14.053
										c-19.105-4.56-33.625-13.271-35.485-21.172c-1.864-7.897,4.819-24.955,7.211-23.537
										C83.42,168.441,82.701,175.003,82.701,175.003z"/>
								</g>
							</g>
						</g>
					</g>
				</g>
			</g>
			<g>
				
					<linearGradient id="SVGID_68_" gradientUnits="userSpaceOnUse" x1="-229.9263" y1="355.5166" x2="-246.6386" y2="361.6742" gradientTransform="matrix(0.985 -0.1725 -0.1725 -0.985 378.7954 502.9489)">
					<stop  offset="0" style="stop-color:#B3B3B3"/>
					<stop  offset="1" style="stop-color:#808080"/>
				</linearGradient>
				<path fill="url(#SVGID_68_)" d="M68.409,191.507c1.354,2.899,7.62,8.913,7.886,10.431c0.266,1.521,9.048-0.957,11.305-4.797
					c2.26-3.84,7.174-18.037,2.148-17.298c-7.818,1.148-12.55-1.668-15.8-0.069C70.699,181.37,68.409,191.507,68.409,191.507z"/>
				
					<linearGradient id="SVGID_69_" gradientUnits="userSpaceOnUse" x1="-276.9585" y1="372.4375" x2="-226.4838" y2="383.6123" gradientTransform="matrix(0.985 -0.1725 -0.1725 -0.985 378.7954 502.9489)">
					<stop  offset="0" style="stop-color:#666666"/>
					<stop  offset="0.6688" style="stop-color:#CCCCCC"/>
				</linearGradient>
				<path fill="url(#SVGID_69_)" d="M81.967,181.205c0.657,5.096-3.605,11.328-11.572,13.216c-9.896,2.345-13.526-4.44-16.391-5.507
					c-6.084-2.268-9.627-2.244-9.333-5.324c0.575-6.02,10.88,1.551,11.955,0.346c2.267-2.552-4.513-5.187-9.818-7.518
					c-5.203-2.284-2.229-9.891,0.005-8.204c2.231,1.69,8.696,8.767,11.314,8.462c2.618-0.304-8.751-8.613-9.744-14.281
					c-0.993-5.67,2.9-5,4.725-3.305c1.824,1.7,6.352,10.842,9.221,13.053c2.871,2.213,1.666-0.291-1.309-7.459
					c-2.973-7.17-2.776-9.842-1.101-10.811c3.298-1.902,4.272,1.659,5.897,6.575c1.625,4.92,2.431,8.567,5.19,11.259
					c2.765,2.691,5.558,2.674,4.909-1.012c-0.646-3.688-2.596-8.459-0.318-9.978c4.123-2.741,5.773,1.724,5.435,6.308
					C80.689,171.605,81.967,181.205,81.967,181.205z"/>
			</g>
			<path opacity="0.6" fill="#FCFCFC" enable-background="new    " d="M141.652,121.35c-0.241-1.379,0.973-2.746,2.705-3.049
				c1.738-0.304,3.342,0.568,3.584,1.947c0.24,1.379-0.976,2.743-2.709,3.047C143.499,123.598,141.895,122.729,141.652,121.35z"/>
			<path opacity="0.5" fill="#FCFCFC" enable-background="new    " d="M163.104,102.977c-0.242-1.381,0.975-2.748,2.705-3.052
				c1.737-0.304,3.34,0.569,3.582,1.952c0.241,1.378-0.969,2.743-2.705,3.047C164.948,105.227,163.346,104.354,163.104,102.977z"/>
			<path fill="#CFCFCF" d="M98.236,306.232c-3.555-1.135-9.459-2.683-12.09,3.726c-2.271,5.519,0.451,13.188,6.045,18.706
				c5.263,5.188,14.881,5.546,16.256-2.155C109.589,320.115,98.236,306.232,98.236,306.232z"/>
			<g>
				<g>
					<path id="SVGID_103_" fill="#CFCFCF" d="M136.171,255.271c-4.623,9.157-4.004,27.229-11.583,33.832
						c-7.579,6.601-23.257,16.09-28.852,18.244c-9.986,3.858-4.182,15.055-2.521,17.396c1.662,2.348,10.365,7.771,18.502-1.042
						c6.719-7.273,16.823-14.568,23.164-21.191c8.083-8.442,17.104-34.332,14.15-42.423
						C144.807,248.525,136.171,255.271,136.171,255.271z"/>
				</g>
				<g>
					<g>
						<g>
							<g>
								<g>
									<defs>
										<path id="SVGID_71_" d="M136.171,255.271c-4.623,9.157-4.004,27.229-11.583,33.832
											c-7.579,6.601-23.257,16.09-28.852,18.244c-9.986,3.858-4.182,15.055-2.521,17.396c1.662,2.348,10.365,7.771,18.502-1.042
											c6.719-7.273,16.823-14.568,23.164-21.191c8.083-8.442,17.104-34.332,14.15-42.423
											C144.807,248.525,136.171,255.271,136.171,255.271z"/>
									</defs>
									<clipPath id="SVGID_73_">
										<use xlink:href="#SVGID_71_"  overflow="visible"/>
									</clipPath>
									
										<linearGradient id="SVGID_74_" gradientUnits="userSpaceOnUse" x1="-220.3877" y1="259.8535" x2="-196.8694" y2="237.5437" gradientTransform="matrix(0.985 -0.1725 -0.1725 -0.985 378.7954 502.9489)">
										<stop  offset="0" style="stop-color:#4D4D4D"/>
										<stop  offset="0.5158" style="stop-color:#CCCCCC"/>
									</linearGradient>
									<path clip-path="url(#SVGID_73_)" fill="url(#SVGID_74_)" d="M151.289,264.047c-5.955-8.492-9.018-6.771-11.693,3.805
										c-2.678,10.576-4.736,22.361-11.146,28.758c-6.41,6.396-21.65,16.884-25.382,18.51c-8.688,3.781-0.207,14.098,6.341,13.393
										c6.547-0.708-9.037,5.536-16.343-2.852c-7.313-8.393-6.713-19.479-1.291-21.745c5.425-2.271,16.848-12.183,26.965-19.228
										s12.063-24.508,12.562-31.188c0.497-6.688,9.687-13.328,13.902-5.521c4.216,7.813,6.409,17.771,6.409,17.771"/>
								</g>
							</g>
						</g>
					</g>
				</g>
			</g>
			<path opacity="0.3" fill="#F9F9F9" enable-background="new    " d="M95.751,335.161c0.71,4.058-14.171-5.214-14.002-11.409
				c0.099-3.584-1.372-3.479-2.739-0.663c-1.367,2.82-0.611,6.73,1.862,10.638c2.041,3.229,9.358,5.188,9.358,5.188
				C94.164,340.504,95.751,335.161,95.751,335.161z"/>
			<path opacity="0.3" fill="#F9F9F9" enable-background="new    " d="M175.604,346.434c2.385,3.36-15.037,1.379-17.545-4.289
				c-1.451-3.273-2.729-2.558-2.758,0.58c-0.025,3.135,2.34,6.338,6.249,8.807c3.231,2.039,10.679,0.665,10.679,0.665
				C176.468,351.941,175.604,346.434,175.604,346.434z"/>
			<path opacity="0.5" fill="#FCFCFC" enable-background="new    " d="M168.51,122.996c-0.238-1.36,0.732-2.666,2.17-2.918
				c1.434-0.251,2.791,0.646,3.028,2.008c0.237,1.355-0.733,2.662-2.167,2.913C170.104,125.25,168.747,124.352,168.51,122.996z"/>
			<path opacity="0.3" fill="#FCFCFC" enable-background="new    " d="M100.313,353.662c5.742,16.17-17.68,6.055-21.931,1.517
				c-3.313-3.544,7.115,4.854,14.507,3.374C100.281,357.076,100.313,353.662,100.313,353.662z"/>
			<path opacity="0.3" fill="#FCFCFC" enable-background="new    " d="M187.033,364.626c9.138,14.521-15.928,9.772-21.069,6.271
				c-4.009-2.729,8.003,3.181,14.894,0.119C187.746,367.964,187.033,364.626,187.033,364.626z"/>
		</g>
		
			<radialGradient id="SVGID_75_" cx="-224.6675" cy="309.9775" r="5.1404" gradientTransform="matrix(0.985 -0.1725 -0.1725 -0.985 378.7954 502.9489)" gradientUnits="userSpaceOnUse">
			<stop  offset="0.3118" style="stop-color:#1A1A1A"/>
			<stop  offset="1" style="stop-color:#CCCCCC"/>
		</radialGradient>
		<path fill="url(#SVGID_75_)" d="M104.541,230.797c1.495-0.167,5.084,3.348,4.23,6.939c-0.666,2.813-2.158,3.587-4.035,4.021
			C99.473,242.973,95.43,231.814,104.541,230.797z"/>
		
			<radialGradient id="SVGID_77_" cx="-202.7422" cy="289.3906" r="5.1245" gradientTransform="matrix(0.985 -0.1725 -0.1725 -0.985 378.7954 502.9489)" gradientUnits="userSpaceOnUse">
			<stop  offset="0.3118" style="stop-color:#1A1A1A"/>
			<stop  offset="1" style="stop-color:#CCCCCC"/>
		</radialGradient>
		<path fill="url(#SVGID_77_)" d="M129.721,247.288c1.496-0.167,4.788,2.692,4.233,6.94c-0.306,2.338-2.16,3.586-4.037,4.019
			C124.652,259.464,120.609,248.305,129.721,247.288z"/>
		<g>
			<g>
				<path id="SVGID_108_" fill="#DBDBDB" d="M104.502,234.398c-3.951,0.209-19.041,15.082-10.828,25.685
					c5.717,7.377,15.87,12.043,25.717,6.459c9.846-5.585,11.672-13.005,11.672-13.005s-0.308-3.496-3.142-1.939
					c-1.562,0.855-2.702,4.115-7.369,8.295c-8.015,7.174-31.62-1.523-20.563-14.605c2.578-3.053,4.339-5.387,5.186-6.914
					C106.668,235.654,104.502,234.398,104.502,234.398z"/>
			</g>
			<g>
				<g>
					<g>
						<g>
							<g>
								<defs>
									<path id="SVGID_79_" d="M104.502,234.398c-3.951,0.209-19.041,15.082-10.828,25.685c5.717,7.377,15.87,12.043,25.717,6.459
										c9.846-5.585,11.672-13.005,11.672-13.005s-0.308-3.496-3.142-1.939c-1.562,0.855-2.702,4.115-7.369,8.295
										c-8.015,7.174-31.62-1.523-20.563-14.605c2.578-3.053,4.339-5.387,5.186-6.914
										C106.668,235.654,104.502,234.398,104.502,234.398z"/>
								</defs>
								<clipPath id="SVGID_80_">
									<use xlink:href="#SVGID_79_"  overflow="visible"/>
								</clipPath>
								
									<linearGradient id="SVGID_81_" gradientUnits="userSpaceOnUse" x1="-237.8877" y1="299.5176" x2="-221.7078" y2="293.4367" gradientTransform="matrix(0.985 -0.1725 -0.1725 -0.985 378.7954 502.9489)">
									<stop  offset="0" style="stop-color:#1A1A1A"/>
									<stop  offset="0.6688" style="stop-color:#666666"/>
								</linearGradient>
								<path opacity="0.3" clip-path="url(#SVGID_80_)" fill="url(#SVGID_81_)" enable-background="new    " d="M105.387,235.344
									c-3.676,1.178-12.675,10.68-12.533,16.238c0.141,5.434,3.557,10.623,11.686,13.668c3.168,1.188,10.537,2.82,17.123-2.34
									c8.754-6.858,8.752-12.145,8.752-12.145s5.777-1.037,2.656,5.002c-3.12,6.041-9.219,12.332-15.353,14.445
									c-6.135,2.12-18.757,2.438-24.272-5.575c-5.514-8.019-4.118-18.977,0.375-24.284c4.496-5.313,9.441-9.354,9.441-9.354
									L105.387,235.344z"/>
							</g>
						</g>
					</g>
				</g>
			</g>
		</g>
	</g>
</g>
<g id="Layer_3" display="none">
	<g display="inline">
		<g>
			
				<linearGradient id="SVGID_83_" gradientUnits="userSpaceOnUse" x1="435.7061" y1="2219.0596" x2="459.531" y2="2247.5471" gradientTransform="matrix(0.5936 0.7231 0.7305 -0.5996 -1679.155 1138.2935)">
				<stop  offset="0" style="stop-color:#666666"/>
				<stop  offset="0.6688" style="stop-color:#CCCCCC"/>
			</linearGradient>
			<path fill="url(#SVGID_83_)" d="M217.949,140.813c-3.889,2.914-10.969,2.34-16.172-3.277c-6.467-6.979-2.563-13.104-2.991-15.936
				c-0.929-6.02-2.573-8.896,0.092-10.095c5.211-2.336,3.72,9.597,5.201,9.91c3.138,0.662,2.19-6.097,1.675-11.509
				c-0.509-5.307,7.107-6.426,6.745-3.818c-0.364,2.607-3.215,11.178-1.765,13.173c1.449,1.993,3.063-11.151,7.27-14.604
				c4.204-3.45,5.439,0.036,4.883,2.313c-0.562,2.279-5.998,10.229-6.498,13.604c-0.502,3.367,1.002,1.221,5.53-4.547
				c4.53-5.764,6.812-6.854,8.379-5.933c3.076,1.8,0.595,4.259-2.698,7.875c-3.299,3.615-5.926,5.977-6.871,9.483
				c-0.941,3.504,0.353,5.771,3.084,3.527c2.732-2.244,5.768-6.061,8.057-4.91c4.146,2.084,1.229,5.512-2.688,7.369
				C225.251,135.299,217.949,140.813,217.949,140.813z"/>
			<g>
				
					<linearGradient id="SVGID_84_" gradientUnits="userSpaceOnUse" x1="-404.7461" y1="3160.7998" x2="-431.9357" y2="3170.8176" gradientTransform="matrix(-3.000000e-004 1 1 3.000000e-004 -2961.6116 550.9166)">
					<stop  offset="0" style="stop-color:#B3B3B3"/>
					<stop  offset="1" style="stop-color:#808080"/>
				</linearGradient>
				<path fill="url(#SVGID_84_)" d="M201.08,131.218c-0.684,0.416-8.539,6.132-10.109,6.063c-1.574-0.065,7.316-2.183,11.502,0.151
					c3.639,2.028,7.422,1.45,7.697,13.211c0,0,2.785-7.063,3.268-11.043C214.67,129.418,201.08,131.218,201.08,131.218z"/>
				<path fill="#5E6060" d="M191.77,143.395c-1.969-3.119-1.649-5.795-0.104-6.793c1.552-0.994,4.994-4.313,10.945-1.405
					c5.953,2.909,7.242,5.396,7.617,10.056c0.377,4.654,0.43,4.686-0.063,5.396c-0.483,0.707-4.577,0.774-9.502-1.705
					C195.745,146.455,191.77,143.395,191.77,143.395z"/>
			</g>
			<g>
				<g>
					
						<linearGradient id="SVGID_86_" gradientUnits="userSpaceOnUse" x1="-1095.9063" y1="-315.4336" x2="-1046.584" y2="-315.4336" gradientTransform="matrix(0.751 -0.6603 -0.6603 -0.751 764.861 -621.958)">
						<stop  offset="0" style="stop-color:#4D4D4D"/>
						<stop  offset="0.966" style="stop-color:#CCCCCC"/>
					</linearGradient>
					<path id="SVGID_113_" fill="url(#SVGID_86_)" d="M154.839,294.072c-1.157,9.248-5.597,20.803-6.758,22.518
						c-9.636,14.235,2.815,22.178,2.815,22.178s8.018,4.976,15.274,7.597c4.279,1.544,20.601,5.755,28.646-8.332
						c7.619-13.337-16.014-15.435-17.729-17.378c-4.557-5.188,2.154-14.029,5.063-19.542
						C184.16,297.303,154.839,294.072,154.839,294.072z"/>
				</g>
				<g>
					<g>
						<g>
							<g>
								<g>
									<defs>
										<path id="SVGID_88_" d="M154.839,294.072c-1.157,9.248-5.597,20.803-6.758,22.518
											c-9.636,14.235,2.815,22.178,2.815,22.178s8.018,4.976,15.274,7.597c4.279,1.544,20.601,5.755,28.646-8.332
											c7.619-13.337-16.014-15.435-17.729-17.378c-4.557-5.188,2.154-14.029,5.063-19.542
											C184.16,297.303,154.839,294.072,154.839,294.072z"/>
									</defs>
									<clipPath id="SVGID_90_">
										<use xlink:href="#SVGID_88_"  overflow="visible"/>
									</clipPath>
									<path clip-path="url(#SVGID_90_)" fill="#CBD3D2" d="M146.525,314.083c-2.777,6.838-2.012,14.065,6.205,18.87
										c8.215,4.799,17.797,11.156,24.824,10.97c7.022-0.188,18.616-3.58,18.395-8.585c-0.227-4.998,3.722,5.118-3.688,11.229
										c-7.408,6.11-13.482,9.461-23.221,6.436c-9.73-3.023-28.402-10.176-29.915-16.436
										C137.621,330.303,146.525,314.083,146.525,314.083z"/>
								</g>
							</g>
						</g>
					</g>
				</g>
			</g>
			<g>
				<g>
					
						<linearGradient id="SVGID_92_" gradientUnits="userSpaceOnUse" x1="-567.4175" y1="16.0332" x2="-517.918" y2="16.0332" gradientTransform="matrix(0.9384 -0.3455 -0.3455 -0.9384 599.3393 147.498)">
						<stop  offset="0" style="stop-color:#4D4D4D"/>
						<stop  offset="0.966" style="stop-color:#CCCCCC"/>
					</linearGradient>
					<path id="SVGID_116_" fill="url(#SVGID_92_)" d="M83.341,287.646c-6.226,7.774-14.399,18.145-16.103,19.321
						c-14.115,9.813-5.359,21.704-5.359,21.704s5.691,7.524,11.52,12.584c3.438,2.979,13.778,16.325,29.727,2.546
						c11.621-10.043-8.958-18.95-9.854-21.386c-2.387-6.479,7.334-11.991,12.033-16.085
						C108.542,303.507,83.341,287.646,83.341,287.646z"/>
				</g>
				<g>
					<g>
						<g>
							<g>
								<g>
									<defs>
										<path id="SVGID_94_" d="M83.341,287.646c-6.226,7.774-14.399,18.145-16.103,19.321
											c-14.115,9.813-5.359,21.704-5.359,21.704s5.691,7.524,11.52,12.584c3.438,2.979,13.778,16.325,29.727,2.546
											c11.621-10.043-8.958-18.95-9.854-21.386c-2.387-6.479,7.334-11.991,12.033-16.085
											C108.542,303.507,83.341,287.646,83.341,287.646z"/>
									</defs>
									<clipPath id="SVGID_96_">
										<use xlink:href="#SVGID_94_"  overflow="visible"/>
									</clipPath>
									<path clip-path="url(#SVGID_96_)" fill="#CBD3D2" d="M66.695,304.075c-5.057,5.375-6.945,12.396-1.012,19.835
										c5.937,7.438,12.584,16.813,19.205,19.174c6.623,2.357,18.661,3.369,20.252-1.38c1.592-4.749,1.629,6.112-7.482,9.146
										c-9.112,3.035-15.985,3.971-23.975-2.355c-7.994-6.329-22.834-19.729-21.99-26.11
										C52.544,315.996,66.695,304.075,66.695,304.075z"/>
								</g>
							</g>
						</g>
					</g>
				</g>
			</g>
			<path fill="#CFCFCF" d="M160.879,290.502c-3.488,1.551-10.85,4.48-6.273,10.382c3.723,4.796,11.672,6.857,20.654,6.396
				c5.84-0.306,9.686-6.89,5.709-12.169C177.203,290.111,160.879,290.502,160.879,290.502z"/>
			<g>
				<g>
					<path id="SVGID_119_" fill="#CFCFCF" d="M149.288,228.428c3.33,9.342,16.646,20.422,16.106,30.366
						c-0.537,9.948-4.619,27.869-6.949,33.479c-4.159,10.021,8.302,11.052,11.121,11.293c2.822,0.235,12.209,1.066,11.593-12.939
						c-0.431-9.779,1.255-22.029,0.915-31.055c-0.428-11.508-13.785-34.129-21.78-36.594
						C145.527,218.419,149.288,228.428,149.288,228.428z"/>
				</g>
				<g>
					<g>
						<g>
							<g>
								<g>
									<defs>
										<path id="SVGID_98_" d="M149.288,228.428c3.33,9.342,16.646,20.422,16.106,30.366c-0.537,9.948-4.619,27.869-6.949,33.479
											c-4.159,10.021,8.302,11.052,11.121,11.293c2.822,0.235,12.209,1.066,11.593-12.939
											c-0.431-9.779,1.255-22.029,0.915-31.055c-0.428-11.508-13.785-34.129-21.78-36.594
											C145.527,218.419,149.288,228.428,149.288,228.428z"/>
									</defs>
									<clipPath id="SVGID_100_">
										<use xlink:href="#SVGID_98_"  overflow="visible"/>
									</clipPath>
									
										<linearGradient id="SVGID_101_" gradientUnits="userSpaceOnUse" x1="-1560.3364" y1="-381.3525" x2="-1533.0715" y2="-400.9513" gradientTransform="matrix(0.5329 -0.8462 -0.8462 -0.5329 665.5135 -1261.1069)">
										<stop  offset="0" style="stop-color:#4D4D4D"/>
										<stop  offset="0.6688" style="stop-color:#CCCCCC"/>
									</linearGradient>
									<path clip-path="url(#SVGID_100_)" fill="url(#SVGID_101_)" d="M166.004,222.594c-10.543,1.698-11.064,2.498-5.377,11.278
										c5.688,8.774,12.665,17.86,12.791,26.793c0.125,8.935-6.333,23.672-6.811,27.728c-1.551,13.236,14.179,9.754,18.203,4.353
										c4.021-5.405-4.131,13.067-15.164,13.243c-11.035,0.172-18.529-7.359-16.396-12.91c2.135-5.557,2.975-20.521,4.947-32.678
										c1.978-12.148-9.124-24.775-13.549-29.426c-4.422-4.642-2.801-15.836,5.685-14.037c8.483,1.795,17.104,6.498,17.104,6.498"
										/>
								</g>
							</g>
						</g>
					</g>
				</g>
			</g>
			<g>
				<g>
					<path id="SVGID_122_" fill="#4C4C4C" d="M79.469,169.24c-2.404,9.423-5.969,31.333,0.352,46.563
						c1.763,4.234,15.689,8.925,33.027,1.462c17.336-7.468,17.861-51.104,15.846-58.314c-2.017-7.215-36.396-8.299-41.229-4.686
						C80.492,159.471,79.469,169.24,79.469,169.24z"/>
				</g>
				<g>
					<g>
						<g>
							<g>
								<g>
									<defs>
										<path id="SVGID_102_" d="M79.469,169.24c-2.404,9.423-5.969,31.333,0.352,46.563c1.763,4.234,15.689,8.925,33.027,1.462
											c17.336-7.468,17.861-51.104,15.846-58.314c-2.017-7.215-36.396-8.299-41.229-4.686
											C80.492,159.471,79.469,169.24,79.469,169.24z"/>
									</defs>
									<clipPath id="SVGID_104_">
										<use xlink:href="#SVGID_102_"  overflow="visible"/>
									</clipPath>
									
										<linearGradient id="SVGID_105_" gradientUnits="userSpaceOnUse" x1="-574.3574" y1="91.4258" x2="-514.96" y2="91.4258" gradientTransform="matrix(0.9236 -0.3833 -0.3833 -0.9236 632.709 61.0093)">
										<stop  offset="0" style="stop-color:#4D4D4D"/>
										<stop  offset="0.6688" style="stop-color:#CCCCCC"/>
									</linearGradient>
									<path clip-path="url(#SVGID_104_)" fill="url(#SVGID_105_)" d="M112.521,150.997c2.81,11.278,0.023,0.823-14.271,8.43
										c-5.849,3.112-7.505,28.146-7.147,38.523c0.547,16.146,1.129,20.766,15.056,21.53c9.005,0.494-29.87,12.92-31.692-6.732
										c-1.82-19.65,0.504-56.459,9.301-63.043C92.564,143.123,112.521,150.997,112.521,150.997z"/>
								</g>
							</g>
						</g>
					</g>
				</g>
			</g>
			<g>
				<g>
					<path id="SVGID_125_" fill="#CFCFCF" d="M155.771,151.669c6.129-1.003,17.104,2.733,26.996-2.326
						c11.82-6.048,16.688-13.866,16.688-13.866s3.406-0.021,7.119,2.787c2.42,1.832-3.565,15.381-11.723,20.079
						c-8.152,4.698-30.574,9.648-35.229,7.401C154.98,163.497,155.771,151.669,155.771,151.669z"/>
				</g>
				<g>
					<g>
						<g>
							<g>
								<g>
									<defs>
										<path id="SVGID_106_" d="M155.771,151.669c6.129-1.003,17.104,2.733,26.996-2.326
											c11.82-6.048,16.688-13.866,16.688-13.866s3.406-0.021,7.119,2.787c2.42,1.832-3.565,15.381-11.723,20.079
											c-8.152,4.698-30.574,9.648-35.229,7.401C154.98,163.497,155.771,151.669,155.771,151.669z"/>
									</defs>
									<clipPath id="SVGID_107_">
										<use xlink:href="#SVGID_106_"  overflow="visible"/>
									</clipPath>
									<path opacity="0.4" clip-path="url(#SVGID_107_)" fill="#9B9B9B" enable-background="new    " d="M166.773,147.508
										c-0.575,6.198,1.852,11.273,6.343,11.506c8.481,0.441,18.276-2.932,24.345-8.559c6.066-5.626,17.923-17.646,17.585-23.307
										c-0.341-5.658,0.261,16.898-7.569,24.061c-7.83,7.158-15.033,13.168-27.888,16.637
										c-12.854,3.471-27.343-3.984-28.935-8.641C149.063,154.551,166.773,147.508,166.773,147.508z"/>
								</g>
							</g>
						</g>
					</g>
				</g>
			</g>
			<g>
				<g>
					
						<linearGradient id="SVGID_109_" gradientUnits="userSpaceOnUse" x1="-493.4316" y1="119.0752" x2="-408.8262" y2="119.0752" gradientTransform="matrix(0.9384 -0.3455 -0.3455 -0.9384 599.3393 147.498)">
						<stop  offset="0" style="stop-color:#4D4D4D"/>
						<stop  offset="0.6688" style="stop-color:#CCCCCC"/>
					</linearGradient>
					<path id="SVGID_127_" fill="url(#SVGID_109_)" d="M109.236,146.473c3.488,5.192-5.911,37.957-10.547,57.358
						c-4.729,19.769,17.793,45.88,47.582,37.748c33.15-9.052,42.416-26.369,28.735-63.347
						c-11.771-31.826-19.616-38.707-22.987-41.109C148.648,134.723,109.236,146.473,109.236,146.473z"/>
				</g>
				<g>
					<g>
						<g>
							<g>
								<g>
									<defs>
										<path id="SVGID_110_" d="M109.236,146.473c3.488,5.192-5.911,37.957-10.547,57.358
											c-4.729,19.769,17.793,45.88,47.582,37.748c33.15-9.052,42.416-26.369,28.735-63.347
											c-11.771-31.826-19.616-38.707-22.987-41.109C148.648,134.723,109.236,146.473,109.236,146.473z"/>
									</defs>
									<clipPath id="SVGID_111_">
										<use xlink:href="#SVGID_110_"  overflow="visible"/>
									</clipPath>
									
										<linearGradient id="SVGID_112_" gradientUnits="userSpaceOnUse" x1="-487.3906" y1="129.6182" x2="-452.6759" y2="116.5711" gradientTransform="matrix(0.9384 -0.3455 -0.3455 -0.9384 599.3393 147.498)">
										<stop  offset="0" style="stop-color:#1A1A1A"/>
										<stop  offset="0.6688" style="stop-color:#666666"/>
									</linearGradient>
									<path opacity="0.4" clip-path="url(#SVGID_111_)" fill="url(#SVGID_112_)" enable-background="new    " d="
										M174.979,141.303c-20.977,0.594-50.972,7.1-57.877,23.18c-6.814,15.869-16.703,49.813,7.733,64.923
										c26.279,16.245,59.423-15.046,60.505-25.979c1.086-10.931,1.063,33.438-38.96,43.184
										c-27.536,6.705-54.19-4.021-54.868-38.42c-0.679-34.396,11.735-59.909,25.153-64.691
										C130.079,138.711,174.979,141.303,174.979,141.303z"/>
								</g>
							</g>
						</g>
					</g>
				</g>
			</g>
			<g>
				<path fill="#CFCFCF" d="M73.873,124.844c-3.4-8.963-22.188-58.727-23.004-60.354c-2.832-5.669,6.095,20.242,10.158,31.277
					c4.063,11.036,12.146,32.991,12.146,32.991L73.873,124.844z"/>
				
					<ellipse transform="matrix(-0.3456 -0.9384 0.9384 -0.3456 6.6997 133.5496)" fill="#CFCFCF" cx="49.917" cy="64.439" rx="2.101" ry="2.549"/>
			</g>
			<g>
				<g>
					<path id="SVGID_131_" fill="#CFCFCF" d="M162.572,130.371c1.763,4.941,3.051,12.027-4.538,18.932
						c-10.632,9.665-37.743,14.7-46.907,5.508c-6.666-6.688-7.08-11.494-7.08-11.494L162.572,130.371z"/>
				</g>
				<g>
					<g>
						<g>
							<g>
								<g>
									<defs>
										<path id="SVGID_114_" d="M162.572,130.371c1.763,4.941,3.051,12.027-4.538,18.932c-10.632,9.665-37.743,14.7-46.907,5.508
											c-6.666-6.688-7.08-11.494-7.08-11.494L162.572,130.371z"/>
									</defs>
									<clipPath id="SVGID_115_">
										<use xlink:href="#SVGID_114_"  overflow="visible"/>
									</clipPath>
									<path opacity="0.4" clip-path="url(#SVGID_115_)" fill="#4E4E4E" enable-background="new    " d="M162.257,143.999
										c-4.978,11.017-35.545,22.586-44.45,18.192c-8.906-4.395-17.188-18.35-15.507-23.061
										c1.679-4.711,7.834,11.786,18.126,15.561C134.604,159.889,162.257,143.999,162.257,143.999z"/>
								</g>
							</g>
						</g>
					</g>
				</g>
			</g>
			<g>
				<g>
					
						<linearGradient id="SVGID_117_" gradientUnits="userSpaceOnUse" x1="-487.1787" y1="213.5313" x2="-375.751" y2="213.5313" gradientTransform="matrix(0.9384 -0.3455 -0.3455 -0.9384 599.3393 147.498)">
						<stop  offset="0" style="stop-color:#666666"/>
						<stop  offset="0.6688" style="stop-color:#CCCCCC"/>
					</linearGradient>
					<path id="SVGID_133_" fill="url(#SVGID_117_)" d="M170.494,73.752c-5.905-16.044-25.325-27.116-37.411-31.295
						c-12.087-4.182-36.78,1.678-52.282,14.273C65.3,69.325,61.475,92.791,65.291,105.77c3.82,12.979,12.391,41.472,40.389,44.586
						c27.997,3.119,61.582-11.534,69.247-25.489C188.132,100.824,170.494,73.752,170.494,73.752z"/>
				</g>
				<g>
					<g>
						<g>
							<g>
								<g>
									<defs>
										<path id="SVGID_118_" d="M170.494,73.752c-5.905-16.044-25.325-27.116-37.411-31.295
											c-12.087-4.182-36.78,1.678-52.282,14.273C65.3,69.325,61.475,92.791,65.291,105.77
											c3.82,12.979,12.391,41.472,40.389,44.586c27.997,3.119,61.582-11.534,69.247-25.489
											C188.132,100.824,170.494,73.752,170.494,73.752z"/>
									</defs>
									<clipPath id="SVGID_120_">
										<use xlink:href="#SVGID_118_"  overflow="visible"/>
									</clipPath>
									<path opacity="0.2" clip-path="url(#SVGID_120_)" fill="#0C0C0C" enable-background="new    " d="M170.775,60.566
										c-42.635-18.878-55.717-18.102-79.535-1.027c-28.877,20.697-21.756,69.336,15.871,81.688
										c36.104,11.854,69.74-15.475,75.968-22.879c6.223-7.406-27.085,46.09-83.741,34.488
										c-33.209-6.799-46.89-56.402-42.736-69.438c4.148-13.035,22.274-44,55.135-46.828
										C151.781,33.125,170.775,60.566,170.775,60.566z"/>
								</g>
							</g>
						</g>
					</g>
				</g>
			</g>
			
				<linearGradient id="SVGID_121_" gradientUnits="userSpaceOnUse" x1="-479.7607" y1="208.6211" x2="-384.6874" y2="208.6211" gradientTransform="matrix(0.9384 -0.3455 -0.3455 -0.9384 599.3393 147.498)">
				<stop  offset="0" style="stop-color:#006A62"/>
				<stop  offset="1" style="stop-color:#003954"/>
			</linearGradient>
			<path fill="url(#SVGID_121_)" d="M174.797,111.486c-5.727,11.793-36.771,29.228-56.424,25.595
				c-15.122-2.792-27.799-22.544-30.018-38.988c-2.217-16.444,15.608-34.804,41.656-39.668c27.889-5.208,34.006,3.767,40.479,15.327
				C183.553,97.063,174.797,111.486,174.797,111.486z"/>
			<path opacity="0.2" fill="#9EC6BE" enable-background="new    " d="M118.124,90.561c-6.004-6.928-22.163-5.668-23.276,4.33
				c-1.111,10,7.467,20.154,18.526,16.191C125.906,106.598,118.124,90.561,118.124,90.561z"/>
			<path opacity="0.3" fill="#9EC6BE" enable-background="new    " d="M128.563,70.025c-2.806-2.693-11.104-1.551-12.049,2.707
				c-0.947,4.261,3.051,8.219,8.846,6.127C131.927,76.497,128.563,70.025,128.563,70.025z"/>
			<g>
				<g>
					<path id="SVGID_137_" fill="#CFCFCF" d="M76.271,101.729c-7.153-10.313-17.765-6.565-18.842-1.691
						c-1.408,6.335,1.864,30.968,12.319,34.777c10.457,3.813,16.229-1.322,13.672-13.662
						C81.253,110.704,76.271,101.729,76.271,101.729z"/>
				</g>
				<g>
					<g>
						<g>
							<g>
								<g>
									<defs>
										<path id="SVGID_123_" d="M76.271,101.729c-7.153-10.313-17.765-6.565-18.842-1.691
											c-1.408,6.335,1.864,30.968,12.319,34.777c10.457,3.813,16.229-1.322,13.672-13.662
											C81.253,110.704,76.271,101.729,76.271,101.729z"/>
									</defs>
									<clipPath id="SVGID_124_">
										<use xlink:href="#SVGID_123_"  overflow="visible"/>
									</clipPath>
									
										<linearGradient id="SVGID_126_" gradientUnits="userSpaceOnUse" x1="-496.0483" y1="211.3574" x2="-472.3185" y2="211.3574" gradientTransform="matrix(0.9384 -0.3455 -0.3455 -0.9384 599.3393 147.498)">
										<stop  offset="0.146" style="stop-color:#333333"/>
										<stop  offset="0.9208" style="stop-color:#CCCCCC"/>
									</linearGradient>
									<path opacity="0.4" clip-path="url(#SVGID_124_)" fill="url(#SVGID_126_)" enable-background="new    " d="M71.729,138.229
										c5.59-2.871,7.354-7.166,6.402-13.211c-0.945-6.045-3.695-15.899-8.084-21.957c-3.498-4.832-11.877-4.119-14.593-1.944
										c-2.718,2.171-0.621,15.315,1.383,20.764C61.848,135.486,71.729,138.229,71.729,138.229z"/>
								</g>
							</g>
						</g>
					</g>
				</g>
			</g>
			<g>
				<g>
					<path id="SVGID_140_" fill="#CFCFCF" d="M69.343,118.355c-1.157-3.147-5.59-1.436-6.069-0.063
						c-0.629,1.78-0.231,8.515,3.16,9.304c3.395,0.789,5.976-0.923,4.813-4.07C70.088,120.377,69.343,118.355,69.343,118.355z"/>
				</g>
				<g>
					<g>
						<g>
							<g>
								<g>
									<defs>
										<path id="SVGID_128_" d="M69.343,118.355c-1.157-3.147-5.59-1.436-6.069-0.063c-0.629,1.78-0.231,8.515,3.16,9.304
											c3.395,0.789,5.976-0.923,4.813-4.07C70.088,120.377,69.343,118.355,69.343,118.355z"/>
									</defs>
									<clipPath id="SVGID_129_">
										<use xlink:href="#SVGID_128_"  overflow="visible"/>
									</clipPath>
									<path opacity="0.4" clip-path="url(#SVGID_129_)" fill="#282828" enable-background="new    " d="M66.715,128.605
										c1.938-0.934,2.811-2.489,2.645-4.129c-0.166-1.646-1.575-4.363-2.148-5.849c-0.568-1.479-3.47-1.396-4.434-0.729
										c-0.959,0.666-0.975,4.791-0.439,6.24C63.667,127.764,66.715,128.605,66.715,128.605z"/>
								</g>
							</g>
						</g>
					</g>
				</g>
			</g>
			<path opacity="0.4" fill="#9EC6BE" enable-background="new    " d="M156.652,65.387c29.283,51.387-25.588,65.646-43.807,59.555
				c-5.672-1.896,9.354,12.834,32.963,2.229C198.43,103.523,156.652,65.387,156.652,65.387z"/>
			<path opacity="0.4" fill="#9EC6BE" enable-background="new    " d="M114.173,92.77c-3.587-3.719-13.817-2.539-14.815,3.115
				c-0.994,5.653,4.121,11.109,11.221,8.562C118.611,101.555,114.173,92.77,114.173,92.77z"/>
			<path fill="#FAFAFA" d="M176.637,87.792c-2.842-7.039-12.074-23.458-20.492-26.976c-23.797-9.938-47.588,8.793-53.252,12.893
				c-19.512,14.12-13.266,35.563-8.725,42.768c5.025,7.979,12.57,27.834,55.057,14.813c4.402-1.353-11.463,7.563-22.102,6.854
				c-3.868-0.259-24.754,1.266-35.714-19.934c-8.405-16.26-7.021-26.083-1.111-35.688c8.401-13.639,23.929-20.9,31.416-23.417
				c7.488-2.517,15.103-4.569,21.405-4.524c9.798,0.068,16.619,4.384,18.75,6.146C172.898,69.863,176.637,87.792,176.637,87.792z"/>
			<g>
				<g>
					<path id="SVGID_142_" fill="#CFCFCF" d="M66.754,108.43c-1.66-1.615-3.068-1.044-3.354-0.199
						c-0.369,1.104-0.252,5.341,1.81,5.854c2.06,0.509,3.45-0.479,2.729-2.438C67.218,109.688,66.754,108.43,66.754,108.43z"/>
				</g>
				<g>
					<g>
						<g>
							<g>
								<g>
									<defs>
										<path id="SVGID_130_" d="M66.754,108.43c-1.66-1.615-3.068-1.044-3.354-0.199c-0.369,1.104-0.252,5.341,1.81,5.854
											c2.06,0.509,3.45-0.479,2.729-2.438C67.218,109.688,66.754,108.43,66.754,108.43z"/>
									</defs>
									<clipPath id="SVGID_132_">
										<use xlink:href="#SVGID_130_"  overflow="visible"/>
									</clipPath>
									<path opacity="0.4" clip-path="url(#SVGID_132_)" fill="#111111" enable-background="new    " d="M65.877,114.529
										c1.168-0.565,1.689-1.526,1.577-2.547c-0.11-1.021-0.981-2.715-1.341-3.638c-0.355-0.924-2.112-0.889-2.689-0.479
										c-0.578,0.408-0.563,2.964-0.229,3.869C64.023,113.986,65.877,114.529,65.877,114.529z"/>
								</g>
							</g>
						</g>
					</g>
				</g>
			</g>
			<g>
				<path fill="#CFCFCF" d="M75.163,105.189c-3.399-8.965-22.656-58.559-23.472-60.187c-2.832-5.67,5.623,20.417,9.688,31.453
					c4.063,11.036,12.145,32.991,12.145,32.991L75.163,105.189z"/>
				
					<ellipse transform="matrix(-0.3456 -0.9384 0.9384 -0.3456 28.455 108.7279)" fill="#CFCFCF" cx="52.139" cy="44.442" rx="2.101" ry="2.55"/>
			</g>
			<path opacity="0.3" fill="#FFFFFF" enable-background="new    " d="M125.805,198.139c-0.396-14.77,0.807-16.938,8.813-32.543
				c2.971-5.789,27.428-14.947,36.721,10.295c2.229,6.056,5.146,12.416,5.347,19.803c0.396,14.771-9.653,20.375-22.166,23.949
				C140.434,223.662,126.203,212.908,125.805,198.139z"/>
			<g>
				<g>
					<g>
						<path id="SVGID_144_" fill="#EDEDED" d="M125.146,178.791c-3.406,7.238,0.285,22.729,5.463,23.701
							c5.179,0.973,35.965-4.878,39.209-7.168c6.978-4.918,6.695-21.062-2.461-23.977
							C152.479,166.609,125.146,178.791,125.146,178.791z"/>
					</g>
					<g>
						<g>
							<g>
								<g>
									<g>
										<defs>
											<path id="SVGID_134_" d="M125.146,178.791c-3.406,7.238,0.285,22.729,5.463,23.701
												c5.179,0.973,35.965-4.878,39.209-7.168c6.978-4.918,6.695-21.062-2.461-23.977
												C152.479,166.609,125.146,178.791,125.146,178.791z"/>
										</defs>
										<clipPath id="SVGID_135_">
											<use xlink:href="#SVGID_134_"  overflow="visible"/>
										</clipPath>
										<path opacity="0.7" clip-path="url(#SVGID_135_)" fill="#626262" enable-background="new    " d="M168.984,170.748
											c-20.604,0.691-37.123,6.163-40.193,10.079c-1.818,2.321,1.342,15.471,3.275,17.026
											c2.574,2.064,10.328-0.496,18.383-1.403c11.994-1.354,23.531-4.404,28.244-6.99c5.438-2.983-14.719,14.341-43.604,18.874
											c-15.361,2.411-15.396-21.048-13.604-27.677c1.787-6.63,13.504-10.191,21.981-11.203
											C151.952,168.445,168.984,170.748,168.984,170.748z"/>
									</g>
								</g>
							</g>
						</g>
					</g>
				</g>
				<g>
					<g>
						<path id="SVGID_146_" fill="#A0A3A2" d="M132.133,186.475c0.727-3.261,4.049-3.848,5.273-3.115
							c1.592,0.953,4.973,6.074,2.324,8.475c-2.65,2.396-5.778,2.729-6.836-0.338C131.232,186.68,132.133,186.475,132.133,186.475z"
							/>
					</g>
					<g>
						<g>
							<g>
								<g>
									<g>
										<defs>
											<path id="SVGID_136_" d="M132.133,186.475c0.727-3.261,4.049-3.848,5.273-3.115c1.592,0.953,4.973,6.074,2.324,8.475
												c-2.65,2.396-5.778,2.729-6.836-0.338C131.232,186.68,132.133,186.475,132.133,186.475z"/>
										</defs>
										<clipPath id="SVGID_138_">
											<use xlink:href="#SVGID_136_"  overflow="visible"/>
										</clipPath>
										<path opacity="0.4" clip-path="url(#SVGID_138_)" fill="#F5F5F5" enable-background="new    " d="M140.377,192.636
											c-2.302,0.367-3.992-0.293-4.779-1.573c-0.787-1.277-1.055-4.013-1.379-5.395c-0.324-1.383,2.377-2.88,3.635-2.915
											c1.256-0.03,3.629,2.951,3.978,4.287C142.68,190.386,140.377,192.636,140.377,192.636z"/>
									</g>
								</g>
							</g>
						</g>
					</g>
				</g>
				<g>
					<g>
						<path id="SVGID_148_" fill="#A0A3A2" d="M153.075,182.195c0.726-3.258,4.049-3.848,5.271-3.112
							c1.596,0.953,4.979,6.074,2.327,8.47c-2.649,2.398-5.778,2.73-6.84-0.338C152.174,182.404,153.075,182.195,153.075,182.195z"
							/>
					</g>
					<g>
						<g>
							<g>
								<g>
									<g>
										<defs>
											<path id="SVGID_139_" d="M153.075,182.195c0.726-3.258,4.049-3.848,5.271-3.112c1.596,0.953,4.979,6.074,2.327,8.47
												c-2.649,2.398-5.778,2.73-6.84-0.338C152.174,182.404,153.075,182.195,153.075,182.195z"/>
										</defs>
										<clipPath id="SVGID_141_">
											<use xlink:href="#SVGID_139_"  overflow="visible"/>
										</clipPath>
										<path opacity="0.4" clip-path="url(#SVGID_141_)" fill="#F5F5F5" enable-background="new    " d="M161.316,188.357
											c-2.303,0.369-3.991-0.295-4.778-1.572c-0.788-1.277-1.054-4.012-1.379-5.395c-0.321-1.385,2.377-2.883,3.636-2.914
											c1.258-0.031,3.631,2.947,3.975,4.286C163.622,186.107,161.316,188.357,161.316,188.357z"/>
									</g>
								</g>
							</g>
						</g>
					</g>
				</g>
				<g>
					<g>
						<path id="SVGID_150_" fill="#A0A3A2" d="M163.117,181.07c0.727-3.256,4.048-3.844,5.271-3.111
							c1.592,0.956,4.975,6.075,2.319,8.473c-2.646,2.396-5.774,2.729-6.838-0.34C162.216,181.281,163.117,181.07,163.117,181.07z"
							/>
					</g>
					<g>
						<g>
							<g>
								<g>
									<g>
										<defs>
											<path id="SVGID_143_" d="M163.117,181.07c0.727-3.256,4.048-3.844,5.271-3.111c1.592,0.956,4.975,6.075,2.319,8.473
												c-2.646,2.396-5.774,2.729-6.838-0.34C162.216,181.281,163.117,181.07,163.117,181.07z"/>
										</defs>
										<clipPath id="SVGID_145_">
											<use xlink:href="#SVGID_143_"  overflow="visible"/>
										</clipPath>
										<path opacity="0.4" clip-path="url(#SVGID_145_)" fill="#F5F5F5" enable-background="new    " d="M171.359,187.236
											c-2.303,0.367-3.992-0.293-4.781-1.573c-0.784-1.28-1.051-4.013-1.375-5.396c-0.326-1.385,2.374-2.877,3.634-2.914
											c1.256-0.033,3.634,2.95,3.974,4.289C173.662,184.986,171.359,187.236,171.359,187.236z"/>
									</g>
								</g>
							</g>
						</g>
					</g>
				</g>
				<g>
					<g>
						<path id="SVGID_152_" fill="#A0A3A2" d="M142.604,184.333c0.729-3.257,4.049-3.847,5.273-3.112
							c1.592,0.954,4.975,6.074,2.323,8.471c-2.649,2.396-5.776,2.729-6.839-0.338C141.702,184.543,142.604,184.333,142.604,184.333
							z"/>
					</g>
					<g>
						<g>
							<g>
								<g>
									<g>
										<defs>
											<path id="SVGID_147_" d="M142.604,184.333c0.729-3.257,4.049-3.847,5.273-3.112c1.592,0.954,4.975,6.074,2.323,8.471
												c-2.649,2.396-5.776,2.729-6.839-0.338C141.702,184.543,142.604,184.333,142.604,184.333z"/>
										</defs>
										<clipPath id="SVGID_149_">
											<use xlink:href="#SVGID_147_"  overflow="visible"/>
										</clipPath>
										<path opacity="0.4" clip-path="url(#SVGID_149_)" fill="#F5F5F5" enable-background="new    " d="M150.85,190.498
											c-2.304,0.365-3.992-0.293-4.781-1.574c-0.784-1.279-1.053-4.013-1.377-5.396c-0.321-1.383,2.371-2.877,3.635-2.908
											c1.258-0.033,3.633,2.949,3.975,4.286C153.152,188.247,150.85,190.498,150.85,190.498z"/>
									</g>
								</g>
							</g>
						</g>
					</g>
				</g>
			</g>
			<g>
				<g>
					<path id="SVGID_154_" fill="#CFCFCF" d="M109.359,162.341c-13.186,4.853-29.563,10.382-47.312,6.708
						c-15.987-3.309-15.468,0.283-15.468,0.283s-3.537,3.65,1.281,7.043c4.816,3.395,5.78,6.98,19.645,9.109
						c13.863,2.125,34.348,1.543,42.645-3.703C127.195,171.003,109.359,162.341,109.359,162.341z"/>
				</g>
				<g>
					<g>
						<g>
							<g>
								<g>
									<defs>
										<path id="SVGID_151_" d="M109.359,162.341c-13.186,4.853-29.563,10.382-47.312,6.708
											c-15.987-3.309-15.468,0.283-15.468,0.283s-3.537,3.65,1.281,7.043c4.816,3.395,5.78,6.98,19.645,9.109
											c13.863,2.125,34.348,1.543,42.645-3.703C127.195,171.003,109.359,162.341,109.359,162.341z"/>
									</defs>
									<clipPath id="SVGID_153_">
										<use xlink:href="#SVGID_151_"  overflow="visible"/>
									</clipPath>
									<path opacity="0.5" clip-path="url(#SVGID_153_)" fill="#9B9B9B" enable-background="new    " d="M53.826,159.484
										c-2.715,11.99,10.004,19.104,22.76,20.838c12.757,1.726,28.951,1.035,35.256-5.571c2.417-2.532-3.002-13.644-9.04-15.138
										c-6.04-1.494,17.66,0.373,18.193,10.733c0.534,10.365-14.815,21.604-34.433,20.525c-19.617-1.076-35.457-7.062-38.702-14.5
										s0.293-25.414,2.896-24.44C53.361,152.9,53.826,159.484,53.826,159.484z"/>
								</g>
							</g>
						</g>
					</g>
				</g>
			</g>
			<g>
				
					<linearGradient id="SVGID_155_" gradientUnits="userSpaceOnUse" x1="-510.9082" y1="158.6406" x2="-527.6208" y2="164.7983" gradientTransform="matrix(0.9384 -0.3455 -0.3455 -0.9384 599.3393 147.498)">
					<stop  offset="0" style="stop-color:#B3B3B3"/>
					<stop  offset="1" style="stop-color:#808080"/>
				</linearGradient>
				<path fill="url(#SVGID_155_)" d="M42.708,178.273c1.851,2.608,9.087,7.41,9.62,8.854c0.533,1.448,8.73-2.555,10.268-6.734
					c1.538-4.185,3.84-19.025-0.973-17.403c-7.488,2.524-12.646,0.598-15.559,2.751C43.152,167.891,42.708,178.273,42.708,178.273z"
					/>
				
					<linearGradient id="SVGID_156_" gradientUnits="userSpaceOnUse" x1="-557.9419" y1="175.5596" x2="-507.4679" y2="186.7343" gradientTransform="matrix(0.9384 -0.3455 -0.3455 -0.9384 599.3393 147.498)">
					<stop  offset="0" style="stop-color:#666666"/>
					<stop  offset="0.6688" style="stop-color:#CCCCCC"/>
				</linearGradient>
				<path fill="url(#SVGID_156_)" d="M54.21,165.718c1.556,4.896-1.526,11.79-9.029,15.069c-9.319,4.074-14.105-1.954-17.11-2.494
					c-6.391-1.145-9.873-0.49-10.134-3.572c-0.508-6.024,10.983-0.418,11.824-1.795c1.776-2.914-5.365-4.297-11.001-5.644
					c-5.527-1.319-3.958-9.333-1.459-8.074c2.497,1.265,10.122,7.074,12.643,6.308c2.522-0.768-10.148-6.914-12.136-12.313
					c-1.988-5.401,1.961-5.438,4.06-4.096c2.096,1.349,8.182,9.535,11.399,11.199c3.22,1.666,1.588-0.584-2.616-7.105
					c-4.205-6.526-4.491-9.188-3.013-10.441c2.905-2.461,4.5,0.87,6.977,5.416c2.476,4.553,3.92,7.997,7.119,10.152
					c3.196,2.154,5.942,1.64,4.65-1.871c-1.294-3.516-4.063-7.859-2.096-9.758c3.566-3.438,5.991,0.66,6.472,5.229
					C51.24,156.501,54.21,165.718,54.21,165.718z"/>
			</g>
			<path opacity="0.6" fill="#FCFCFC" enable-background="new    " d="M102.257,96.172c-0.483-1.313,0.466-2.874,2.117-3.482
				c1.655-0.605,3.39-0.037,3.873,1.277c0.483,1.313-0.466,2.873-2.121,3.481C104.475,98.057,102.74,97.486,102.257,96.172z"/>
			<path opacity="0.5" fill="#FCFCFC" enable-background="new    " d="M120.085,74.268c-0.485-1.316,0.463-2.877,2.117-3.485
				c1.653-0.61,3.388-0.036,3.872,1.28c0.482,1.313-0.465,2.871-2.12,3.48C122.301,76.152,120.566,75.58,120.085,74.268z"/>
			<path fill="#CFCFCF" d="M92.529,285.837c-3.699-0.479-9.785-0.948-11.232,5.822c-1.245,5.834,2.799,12.896,9.287,17.327
				c6.104,4.164,15.632,2.802,15.609-5.021C106.176,297.471,92.529,285.837,92.529,285.837z"/>
			<g>
				<g>
					<path id="SVGID_158_" fill="#CFCFCF" d="M120.762,228.923c-2.916,9.836,0.92,27.511-5.359,35.356
						c-6.278,7.845-20.014,19.979-25.133,23.104c-9.139,5.579-1.429,15.561,0.623,17.567c2.059,2.014,11.586,5.8,18.021-4.327
						c5.313-8.355,13.954-17.336,19.011-24.984c6.445-9.755,10.702-36.837,6.354-44.267
						C128.055,220.744,120.762,228.923,120.762,228.923z"/>
				</g>
				<g>
					<g>
						<g>
							<g>
								<g>
									<defs>
										<path id="SVGID_157_" d="M120.762,228.923c-2.916,9.836,0.92,27.511-5.359,35.356
											c-6.278,7.845-20.014,19.979-25.133,23.104c-9.139,5.579-1.429,15.561,0.623,17.567c2.059,2.014,11.586,5.8,18.021-4.327
											c5.313-8.355,13.954-17.336,19.011-24.984c6.445-9.755,10.702-36.837,6.354-44.267
											C128.055,220.744,120.762,228.923,120.762,228.923z"/>
									</defs>
									<clipPath id="SVGID_159_">
										<use xlink:href="#SVGID_157_"  overflow="visible"/>
									</clipPath>
									
										<linearGradient id="SVGID_160_" gradientUnits="userSpaceOnUse" x1="-501.3647" y1="62.9819" x2="-477.8456" y2="40.6714" gradientTransform="matrix(0.9384 -0.3455 -0.3455 -0.9384 599.3393 147.498)">
										<stop  offset="0" style="stop-color:#4D4D4D"/>
										<stop  offset="0.5158" style="stop-color:#CCCCCC"/>
									</linearGradient>
									<path clip-path="url(#SVGID_159_)" fill="url(#SVGID_160_)" d="M137.202,234.859c-7.375-7.293-10.081-5.056-10.826,5.83
										c-0.748,10.885-0.671,22.849-5.835,30.285c-5.167,7.438-18.292,20.473-21.673,22.733
										c-7.871,5.271,2.313,13.909,8.629,12.046s-7.903,7.063-16.589,0.11c-8.689-6.949-10.082-17.972-5.149-21.165
										c4.933-3.199,14.402-14.99,23.101-23.729c8.697-8.735,7.496-26.268,6.793-32.933c-0.699-6.668,7.152-14.846,12.695-7.912
										c5.543,6.938,9.479,16.344,9.479,16.344"/>
								</g>
							</g>
						</g>
					</g>
				</g>
			</g>
			<path opacity="0.3" fill="#F9F9F9" enable-background="new    " d="M95.245,314.744c1.424,3.865-14.874-2.604-15.813-8.729
				c-0.543-3.546-1.972-3.182-2.813-0.164c-0.842,3.021,0.599,6.73,3.73,10.139c2.584,2.81,10.133,3.433,10.133,3.433
				C94.639,320.284,95.245,314.744,95.245,314.744z"/>
			<path opacity="0.3" fill="#F9F9F9" enable-background="new    " d="M175.827,311.586c2.946,2.881-14.548,4.039-18.028-1.09
				c-2.014-2.966-3.146-2.028-2.609,1.063c0.535,3.086,3.438,5.819,7.724,7.551c3.544,1.43,10.626-1.256,10.626-1.256
				C177.661,316.852,175.827,311.586,175.827,311.586z"/>
			<path opacity="0.5" fill="#FCFCFC" enable-background="new    " d="M128.977,93c-0.478-1.295,0.244-2.753,1.613-3.257
				c1.365-0.503,2.862,0.139,3.34,1.435c0.475,1.291-0.248,2.75-1.613,3.254C130.945,94.934,129.451,94.292,128.977,93z"/>
			<path opacity="0.3" fill="#FCFCFC" enable-background="new    " d="M103.037,332.134c8.535,14.892-16.316,9.112-21.309,5.405
				c-3.896-2.896,7.867,3.503,14.875,0.729C103.613,335.498,103.037,332.134,103.037,332.134z"/>
			<path opacity="0.3" fill="#FCFCFC" enable-background="new    " d="M190.32,327.446c11.582,12.657-13.928,12.46-19.611,9.93
				c-4.432-1.971,8.439,1.701,14.678-2.537C191.618,330.604,190.32,327.446,190.32,327.446z"/>
		</g>
		
			<radialGradient id="SVGID_161_" cx="-505.6504" cy="113.1016" r="5.1398" gradientTransform="matrix(0.9384 -0.3455 -0.3455 -0.9384 599.3393 147.498)" gradientUnits="userSpaceOnUse">
			<stop  offset="0.3118" style="stop-color:#1A1A1A"/>
			<stop  offset="1" style="stop-color:#CCCCCC"/>
		</radialGradient>
		<path fill="url(#SVGID_161_)" d="M85.271,210.486c1.438-0.433,5.601,2.386,5.399,6.072c-0.149,2.89-1.481,3.914-3.255,4.676
			C82.457,223.371,76.486,213.113,85.271,210.486z"/>
		
			<radialGradient id="SVGID_162_" cx="-483.7246" cy="92.5137" r="5.1245" gradientTransform="matrix(0.9384 -0.3455 -0.3455 -0.9384 599.3393 147.498)" gradientUnits="userSpaceOnUse">
			<stop  offset="0.3118" style="stop-color:#1A1A1A"/>
			<stop  offset="1" style="stop-color:#CCCCCC"/>
		</radialGradient>
		<path fill="url(#SVGID_162_)" d="M112.99,222.219c1.441-0.431,5.191,1.795,5.402,6.073c0.113,2.356-1.484,3.915-3.256,4.675
			C110.177,235.104,104.206,224.846,112.99,222.219z"/>
		<g>
			<g>
				<path id="SVGID_163_" fill="#DBDBDB" d="M85.875,214.037c-3.85,0.912-16.044,18.238-6.07,27.205
					c6.941,6.238,17.766,9.018,26.457,1.766c8.689-7.252,9.162-14.878,9.162-14.878s-0.926-3.384-3.438-1.348
					c-1.381,1.12-1.924,4.532-5.771,9.478c-6.605,8.489-31.387,4.139-22.84-10.707c1.991-3.459,3.307-6.068,3.863-7.728
					C88.23,214.885,85.875,214.037,85.875,214.037z"/>
			</g>
			<g>
				<g>
					<g>
						<g>
							<g>
								<defs>
									<path id="SVGID_164_" d="M85.875,214.037c-3.85,0.912-16.044,18.238-6.07,27.205c6.941,6.238,17.766,9.018,26.457,1.766
										c8.689-7.252,9.162-14.878,9.162-14.878s-0.926-3.384-3.438-1.348c-1.381,1.12-1.924,4.532-5.771,9.478
										c-6.605,8.489-31.387,4.139-22.84-10.707c1.991-3.459,3.307-6.068,3.863-7.728
										C88.23,214.885,85.875,214.037,85.875,214.037z"/>
								</defs>
								<clipPath id="SVGID_165_">
									<use xlink:href="#SVGID_164_"  overflow="visible"/>
								</clipPath>
								
									<linearGradient id="SVGID_166_" gradientUnits="userSpaceOnUse" x1="-518.873" y1="102.6406" x2="-502.6923" y2="96.559" gradientTransform="matrix(0.9384 -0.3455 -0.3455 -0.9384 599.3393 147.498)">
									<stop  offset="0" style="stop-color:#1A1A1A"/>
									<stop  offset="0.6688" style="stop-color:#666666"/>
								</linearGradient>
								<path opacity="0.3" clip-path="url(#SVGID_165_)" fill="url(#SVGID_166_)" enable-background="new    " d="M86.914,214.811
									c-3.406,1.813-10.564,12.771-9.434,18.213c1.104,5.319,5.391,9.816,13.934,11.361c3.328,0.604,10.87,0.896,16.43-5.354
									c7.391-8.313,6.445-13.512,6.445-13.512s5.501-2.056,3.508,4.443c-1.994,6.5-6.869,13.778-12.525,16.958
									c-5.654,3.183-18.021,5.742-24.879-1.155c-6.854-6.9-7.438-17.937-3.965-23.962c3.477-6.028,7.621-10.892,7.621-10.892
									L86.914,214.811z"/>
							</g>
						</g>
					</g>
				</g>
			</g>
		</g>
	</g>
</g>
</svg>
